<svg xmlns="http://www.w3.org/2000/svg" preserveAspectRatio="xMidYMid" width="221" height="35"><path d="M220.795 32.384a1.145 1.145 0 00-.256.274c-.149.206-.308.309-.479.309a.541.541 0 01-.137-.034h-.12c-.171 0-.296-.04-.376-.12-.342-.32-.536-.578-.581-.772-.069-.251-.103-.434-.103-.549v-.086c.023-.297.117-.531.282-.703a.853.853 0 01.642-.257c.136 0 .244.011.324.034.365.092.599.257.702.498.045.114.094.28.145.497.051.217.094.372.128.463a.26.26 0 01.034.103c0 .126-.068.24-.205.343zm-4.564-1.97c-.056.182-.153.35-.292.503a.728.728 0 01-.126.252c-.529.698-1.044 1.264-1.546 1.697-.139.112-.223.21-.25.293-.014.042-.07.098-.168.168-.223.195-.348.307-.376.335-.056.084-.125.126-.209.126a.72.72 0 01-.208-.021 22.82 22.82 0 01-.303-.105 2.217 2.217 0 00-.387-.105.24.24 0 01-.104-.02 2.033 2.033 0 00-.282-.105 2.032 2.032 0 01-.335-.136.434.434 0 01-.198-.241c-.181-.503-.272-.811-.272-.922 0-.266-.063-.524-.188-.776a.248.248 0 00-.031-.084.265.265 0 01-.032-.083c0-.07.035-.126.105-.168.125-.363.452-.594.982-.692.222-.042.404-.132.543-.272.543-.531.94-1.041 1.191-1.53.251-.475.397-.852.439-1.131v-.043-.146c0-.195.027-.489.083-.88.056-.391.084-.685.084-.88a.669.669 0 00-.011-.105.614.614 0 01-.01-.084.587.587 0 00-.146-.398 13.975 13.975 0 00-.376-.398c-.781-.685-1.303-1.195-1.567-1.53-.182-.238-.293-.405-.335-.503-.306-.657-.459-1.271-.459-1.844v-.168c.013-.503.083-1.096.209-1.781.041-.182.104-.356.188-.524a5.701 5.701 0 011.629-2.096 3.583 3.583 0 011.358-.691.993.993 0 01.23-.021c.181 0 .299.14.355.419 0 .028.014.07.042.126a.598.598 0 01.063.272c0 .126-.056.287-.167.482-.39.657-.781 1.174-1.17 1.551a2.68 2.68 0 00-.669 1.069 1.8 1.8 0 00-.104.565c0 .364.139.706.418 1.027.097.112.205.228.323.346.118.119.251.248.397.388.147.14.262.251.345.335.64.643 1.058 1.153 1.254 1.53.139.266.313.782.522 1.551.097.223.188.573.272 1.047.055.266.083.566.083.901 0 .42-.07 1.035-.209 1.845a5.446 5.446 0 01-.585 1.655zm-5.557-11.4c-.056.084-.237.126-.543.126-.14 0-.224-.007-.251-.021a4.597 4.597 0 00-.94-.084h-.376-.209a.658.658 0 01-.23.084.331.331 0 01-.146-.042.993.993 0 00-.23-.021h-.021c-.195 0-.293.098-.293.293-.014.266-.021.671-.021 1.216v.922c0 .377-.007.657-.021.838a48.16 48.16 0 00-.052.817c-.021.364-.038.636-.052.817 0 1.468-.028 2.564-.083 3.291a26.738 26.738 0 00-.063 1.823c0 .266.013.678.042 1.236.013.112.021.28.021.503 0 .168-.035.671-.105 1.509-.028.181-.104.314-.23.398l-.627.378a3.542 3.542 0 01-.522.041c-.237 0-.376-.035-.418-.104-.097-.21-.146-.685-.146-1.425 0-.308.01-.734.031-1.279.021-.545.032-.88.032-1.006v-.125c0-.042-.004-.105-.011-.189a2.433 2.433 0 01-.01-.189c0-.223.01-.53.031-.922.021-.39.031-.684.031-.88 0-.363-.014-.649-.041-.859a8.034 8.034 0 01-.042-.985c0-.629-.014-1.096-.042-1.404a8.518 8.518 0 01-.042-.733c0-.182.007-.454.021-.818.014-.363.021-.635.021-.817a7.55 7.55 0 00-.021-.671 5.553 5.553 0 01-.021-.565c0-.168.014-.42.042-.755v-.063c0-.181-.083-.279-.251-.293a6.51 6.51 0 00-.605-.021h-.335c-.418 0-.738-.028-.961-.084a1.205 1.205 0 00-.292-.021h-.46c-.237 0-.376-.007-.418-.021-.251-.097-.376-.419-.376-.964 0-.042.003-.094.011-.157.006-.063.01-.108.01-.136v-.042c0-.07-.007-.164-.021-.283a2.497 2.497 0 01-.021-.262c0-.181.063-.3.188-.356.251-.112.703-.202 1.358-.273.265-.027.669-.048 1.212-.062a16.78 16.78 0 001.212-.063 39.88 39.88 0 011.044-.126c.613-.07 1.08-.112 1.4-.126h1.066c.473 0 .828-.007 1.065-.021l.042-.021h.042c.084 0 .195.014.334.042a.82.82 0 01.648.65 2.602 2.602 0 01-.042 1.299c-.195.643-.3.978-.313 1.006zM200.52 32.153c-.126.196-.251.325-.376.388-.126.063-.314.108-.564.136h-.042c-.084 0-.181-.056-.293-.167a5.7 5.7 0 01-.355-.461c-.655-1.327-1.059-2.207-1.212-2.641a5.288 5.288 0 00-.24-.576 2.755 2.755 0 01-.24-.702c-.056-.419-.265-.908-.627-1.467a32.347 32.347 0 00-.251-.43 11.192 11.192 0 00-.25-.408c-.056-.112-.119-.168-.188-.168-.042 0-.07.007-.084.021-.042.056-.091.189-.146.398v.105c0 .098-.035.405-.105.922a65.152 65.152 0 00-.167 1.886 18.062 18.062 0 01-.188 1.551c-.028.182-.153.398-.376.65-.042.056-.104.083-.188.083h-.021a6.704 6.704 0 01-.627-.083 1.083 1.083 0 00-.24-.032.643.643 0 01-.271-.063c-.063-.034-.102-.094-.115-.178a1.896 1.896 0 01-.042-.482c0-.139.042-.545.125-1.215.251-1.733.439-2.864.564-3.395.07-.28.122-.569.157-.87.034-.3.066-.674.094-1.121.028-.447.049-.74.063-.88.027-.224.062-.555.104-.996.042-.44.07-.771.084-.995.041-.517.195-1.669.459-3.458 0-.014.003-.028.011-.042a.09.09 0 00.01-.042.589.589 0 00-.01-.083.567.567 0 01-.011-.105c0-.363.139-.824.418-1.383.028-.056.167-.14.418-.252a.884.884 0 01.397-.084c.125 0 .397.049.815.147h.063a.544.544 0 00.167-.021 1.74 1.74 0 01.292-.042c.153 0 .383.07.69.21.236.112.445.196.626.251.251.084.481.189.69.315.473.279.78.747.919 1.404.111.559.167 1.082.167 1.571 0 .559-.056 1.062-.167 1.509-.028.126-.073.395-.136.807a6.84 6.84 0 01-.198.953 17.819 17.819 0 01-.418 1.321c-.181.489-.543.81-1.086.964-.168.056-.37.084-.606.084-.182 0-.272.07-.272.209 0 .07.021.147.063.231.042.056.278.523.71 1.404.097.195.233.492.407.89.174.399.31.696.408.891.069.14.254.475.554 1.006.299.531.504.957.616 1.278 0 .014.059.129.178.346.118.217.177.374.177.471v.063c-.014.056-.066.122-.157.199-.09.077-.149.137-.177.178zm-1.985-9.912a16.141 16.141 0 00.188-.901c.042-.167.063-.342.063-.524v-.649-.042-.021a3.521 3.521 0 01-.073-.503 6.516 6.516 0 01-.032-.419 4.357 4.357 0 00-.292-1.048c-.112-.265-.286-.398-.523-.398h-.062-.084a2.93 2.93 0 01-.198-.011 2.82 2.82 0 00-.199-.01c-.223 0-.362.119-.418.356a.68.68 0 01-.041.188.633.633 0 00-.042.189c-.056.35-.188 1.349-.397 2.997a52.692 52.692 0 00-.084.954 7.983 7.983 0 01-.041.429v.042c0 .196.062.293.188.293h.02c.07-.013.247-.021.533-.021.285 0 .505-.021.658-.062.432-.098.711-.378.836-.839zm-6.919 8.981l-.405.461-.422.563c-.383.137-.767.315-1.151.412-.199-.064-.399.035-.582-.008-.48-.148-.942-.356-1.336-.686l-.181-.164c-.098-.164-.23-.226-.345-.349a30.269 30.269 0 01-.639-.758c.019-.082-.098-.144-.113-.245-.098-.083-.111-.204-.26-.226-.27.26-.375.583-.661.823-.067.1-.169.261-.27.361-.033.02-.1.04-.085.101-.1.08-.25.098-.318.239-.317.077-.537.48-.885.415-.236.159-.501.156-.734.133-.099.039-.215-.043-.315-.086l-.513-.046c-.199-.124-.362-.349-.577-.434.001-.06-.115-.102-.097-.183-.115-.083-.196-.246-.295-.328-.226-.49-.287-.978-.496-1.466-.127-.529-.12-1.118-.18-1.686.027-.73.186-1.458.409-2.144.107-.506.312-.95.483-1.414.223-.545.346-1.151.57-1.696.219-.282.29-.666.476-.968.187-.362.358-.725.595-1.046.256-.525.43-1.111.768-1.593.119-.283.339-.563.476-.846.284-.26.407-.664.675-.884.103-.242.353-.381.423-.623l-.033-.041c.1-.039.168-.14.236-.241.336-.34.508-.764.81-1.104.346.247.507.695.785 1.002.36.471.721.922.946 1.472.668 1.063 1.387 2.046 1.804 3.227.359.552.517 1.244.791 1.835-.033.06.033.061.033.102.076.487.27.936.448 1.384.222.794.528 1.589.567 2.441.03.365.092.67.071.994-.004.325.025.67.038.995-.054.283-.007.567-.094.83-.073.547-.277.99-.417 1.475zm-1.164-5.661l-.036-.336c-.013-.21-.025-.421-.098-.616-.013-.029-.038-.07-.025-.085-.098-.392-.233-.799-.344-1.205-.221-.407-.38-.883-.626-1.275-.049-.253-.148-.449-.245-.659-.123-.28-.295-.533-.454-.77-.258-.323-.394-.743-.651-1.066-.111-.182-.209-.392-.356-.546-.135-.239-.332-.392-.479-.603a2.14 2.14 0 00-.417-.547c-.221.379-.504.673-.725 1.051-.036.099-.171.127-.122.239-.147.252-.332.476-.479.715 0 .126-.111.168-.086.294-.049.098-.16.084-.184.21-.185.224-.331.49-.503.714-.086.197-.234.365-.332.575-.184.589-.626 1.08-.835 1.654-.012.084-.073.196-.11.266a1.764 1.764 0 01-.159.393c-.05.196-.111.392-.136.575-.098.378-.184.742-.245 1.106-.086.253-.086.533-.11.813 0 .224.061.421.097.645.099.196.173.392.233.588.135.182.234.407.345.589.184.154.392.364.65.294.173.056.344.098.528.042.086.056.159-.056.246 0 .22-.07.441-.154.638-.308.037-.07.135-.056.147-.14.233-.182.405-.435.602-.645.11-.14.135-.322.258-.449 0-.027.011-.069.037-.083.097-.028.11.126.159.182.073.07.061.196.135.252.073.224.307.294.417.491.037.056.16.07.148.182.11.112.245.182.33.336.197.056.308.196.492.308.147.028.319.057.478.028a.592.592 0 00.381 0c.074-.028.148 0 .221-.07.233-.042.467-.14.663-.35.221-.182.307-.462.43-.701.012-.224.122-.406.147-.631.037-.209.012-.392.037-.588-.013-.28-.013-.602-.074-.855l.012-.014zm-11.405 7.682c-.279.042-1.254.098-2.925.168-1.672.07-2.619.118-2.842.146h-.041a.237.237 0 01-.105.021h-.083a.813.813 0 01-.293.043c-.056 0-.133-.004-.23-.011a3.423 3.423 0 00-.209-.011.265.265 0 01-.062-.01.306.306 0 00-.063-.011h-.084c-.376 0-.675-.237-.898-.712a4.819 4.819 0 01-.439-1.907c0-.195-.017-.531-.052-1.006a16.044 16.044 0 01-.052-1.111v-1.55c0-.279.007-.482.021-.608 0-.181.006-.447.021-.796.013-.349.021-.608.021-.776 0-.279-.008-.489-.021-.629-.07-1.662-.119-2.591-.147-2.786a8.467 8.467 0 01-.062-1.027c0-.252.013-.629.042-1.132a.89.89 0 01.146-.524.371.371 0 00.062-.189v-.146a.36.36 0 01.021-.147v-.021-.126c0-.069.021-.126.063-.167.014-.084.118-.259.313-.524.321-.363.683-.594 1.087-.692.195-.042.874-.084 2.037-.125a78.913 78.913 0 012.497-.063c.292 0 .48.007.564.021.125.028.299.042.522.042h.46c.417 0 .744.132.982.398.138.154.208.628.208 1.425v.105c-.014.237-.16.405-.438.502a1.112 1.112 0 01-.46.084h-.083c-.042 0-.119-.003-.23-.01a4.601 4.601 0 00-.272-.011l-2.027.011c-1.17.007-1.852.01-2.047.01-.363 0-.606-.007-.731-.021h-.042c-.209 0-.313.119-.313.357v.209c0 .796.006 1.397.02 1.802.028.476.042.818.042 1.027l-.021-.063a.43.43 0 01-.01.074.456.456 0 00-.011.073c0 .07.021.154.063.251.042.098.084.182.126.252l.062.084a.295.295 0 00.063-.011.34.34 0 01.063-.01c.111-.028.355-.042.731-.042.473 0 1.243.049 2.308.146 1.066.099 1.654.196 1.766.294.083.112.132.419.146.922.014.503.028.79.042.859.013.056.021.133.021.231 0 .196-.119.342-.355.44-.167.07-.321.105-.46.105h-.084c-.028.014-.229.02-.605.02-.391 0-1.038-.01-1.944-.031-.905-.021-1.386-.031-1.441-.031h-.042c-.153.014-.258.045-.313.094-.056.049-.084.136-.084.262v.105c.014.196.021.503.021.922V29.073c0 .154-.021.293-.063.419v.126c0 .098.056.188.168.272.027 0 .069.004.125.011.055.007.104.01.146.01.139 0 .801-.007 1.985-.021 1.183-.013 1.859-.021 2.027-.021.376 0 .626.021.752.063.069.028.205.042.407.042.202 0 .331.014.387.042.167.056.303.238.407.545.105.307.198.664.282 1.069.084.405.146.663.188.775.014.028.021.07.021.126a.509.509 0 01-.104.293.96.96 0 01-.648.419zm-9.736-5.218c-.014.573-.028.999-.042 1.278 0 .015-.021.105-.063.273-.097.279-.31.534-.637.765-.327.23-.644.346-.951.346h-.083c-.321-.042-.516-.217-.585-.524a6.314 6.314 0 01-.063-.702 5.388 5.388 0 00-.042-.556c-.041-.6-.062-1.201-.062-1.802v-.691-.022c0-.209-.077-.314-.23-.314a.386.386 0 00-.125.021c-.823.182-1.609.301-2.361.356-.251.029-.376.168-.376.42V27.795c.027.098.041.251.041.461v.398a.544.544 0 01.021.167v.168c0 .126.003.308.011.545.007.238.01.419.01.545 0 .489-.056.929-.167 1.32-.084.252-.167.419-.251.503-.07.07-.139.16-.209.272-.125.182-.216.273-.271.273-.028 0-.14-.042-.334-.126-.168-.056-.293-.23-.377-.524-.125-.419-.202-.985-.229-1.697 0-.196-.014-.482-.042-.859a12.552 12.552 0 01-.042-.839v-.125c0-.098.003-.231.01-.399.007-.167.011-.3.011-.398.028-1.006.042-1.753.042-2.242v-.105c0-.503-.014-1.257-.042-2.263a.173.173 0 00-.011-.052 3.298 3.298 0 01-.052-.66v-.21-.126c0-.07.021-.147.063-.231 0-.013.003-.034.01-.062a.295.295 0 00.011-.063c0-.042-.004-.105-.011-.189a2.413 2.413 0 01-.01-.188c0-.21.021-.363.063-.461v-.063c0-.503.062-1.146.188-1.928.013-.056.021-.154.021-.294 0-.041-.004-.104-.011-.188a2.433 2.433 0 01-.01-.189v-.084c0-.335.132-.607.397-.817a.669.669 0 01.376-.126c.334 0 .522.175.564.524v.105a.669.669 0 01-.011.105.651.651 0 00-.01.105 2.473 2.473 0 00-.021.377c0 .182.007.314.021.398.013.07.021.182.021.335v.126a6.57 6.57 0 00-.021.608c0 .251.013.611.042 1.079.027.468.041.779.041.933.014.265.021.656.021 1.173v.21c0 .279.014.698.042 1.257.028.224.139.343.335.356.111.014.285.021.522.021.487 0 1.093-.063 1.817-.188h.042c.265-.07.421-.133.47-.189.049-.056.073-.244.073-.566V22.22c0-.67.007-1.173.021-1.509.056-1.243.265-2.242.627-2.996.153-.336.39-.552.71-.65a.634.634 0 01.188-.021c.154 0 .279.063.377.189.222.251.341.566.355.943.027.545.048 1.362.062 2.452a69.73 69.73 0 00.063 2.452c0 .153.024.579.073 1.278.049.699.073 1.236.073 1.613 0 .336-.007.587-.021.755-.028.293-.049.727-.062 1.299zm-14.901 2.523c-.535.024-1.312.165-2.332.42-.874.22-1.591.487-2.149.804a1.605 1.605 0 01-.82.201 2.35 2.35 0 01-.674-.109 7.399 7.399 0 00-.601-.201c-.097-.013-.2-.098-.31-.256a11.1 11.1 0 01-.127-.201 1.21 1.21 0 00-.146-.201c-.17-.232-.255-.451-.255-.658 0-.012.003-.034.009-.064a.387.387 0 00.009-.064v-.073c0-.085-.012-.146-.036-.182a.978.978 0 01-.109-.439v-.201c0-.037.002-.094.009-.174a2.57 2.57 0 00.009-.173 9.21 9.21 0 00-.009-.393c-.007-.14-.016-.292-.028-.457a5.662 5.662 0 01-.018-.393v-.091-.183-.237a.46.46 0 01-.054-.201.94.94 0 01.036-.201v-.548c-.025-.024-.036-.067-.036-.128v-.018c0-.025.002-.058.009-.101a.756.756 0 00.009-.1c0-.195-.007-.487-.018-.877-.013-.39-.019-.682-.019-.877 0-.329.006-.579.019-.75a50.86 50.86 0 01-.419-2.101 49.8 49.8 0 01-.438-2.685 12.607 12.607 0 01-.127-1.645v-.219c.012-.439.243-.828.692-1.169a.408.408 0 01.273-.11c.085 0 .176.031.274.091l.218.11a.766.766 0 01.419.585c.061.28.103.469.128.566.242.256.425.536.546.84.048.122.085.208.109.256.304.524.486 1.206.547 2.047.036.45.097.852.182 1.205.024.135.055.543.091 1.225.012.17.024.52.036 1.05.012.53.03.935.055 1.215l.055 1.133c.024.5.048.877.073 1.133v.749c0 .183.073.274.218.274h.091c.425-.085.698-.128.82-.128.121 0 .243-.015.364-.046.121-.03.264-.073.428-.128l.356-.118.546-.165a1.624 1.624 0 011.694 0 1 1 0 01.51.293c.328.292.583.639.765 1.041a.263.263 0 01.037.146.305.305 0 01-.037.165v.164l.273.493a.724.724 0 01.037.128.231.231 0 01-.073.165c-.316.365-.686.554-1.111.566zm-8.274 1.459a.634.634 0 01.021.188.624.624 0 01-.188.461c-.028.028-.07.084-.125.168-.139.223-.307.335-.501.335a.465.465 0 01-.147-.021h-.125c-.321 0-.551-.167-.689-.503-.182-.419-.453-1.131-.815-2.137a5.577 5.577 0 01-.157-.545l-.136-.545c-.07-.237-.188-.356-.355-.356a.353.353 0 00-.063.01.301.301 0 01-.083.011 4.468 4.468 0 01-.523.042.712.712 0 01-.114-.011.872.872 0 00-.115-.01h-.188c-.112 0-.23.021-.356.063a2.213 2.213 0 01-1.013.136 4.069 4.069 0 01-.251-.031 1.502 1.502 0 00-.219-.021c-.613-.07-.947-.119-1.003-.147-.014-.014-.042-.021-.083-.021-.14 0-.23.112-.272.335-.14.838-.216 1.349-.23 1.53a15.52 15.52 0 01-.083.796c0 .015-.008.056-.021.126a.651.651 0 01-.042.147c-.084.195-.188.293-.313.293-.042 0-.133-.028-.272-.084a18.145 18.145 0 00-.439-.178 18.145 18.145 0 01-.439-.178c-.237-.098-.39-.244-.459-.44a3.03 3.03 0 00-.335-.608.678.678 0 01-.125-.377c0-.014.003-.038.011-.073a.545.545 0 00.01-.074c.055-.405.16-.691.313-.859.098-.097.16-.356.188-.775.056-.503.118-.887.189-1.153.055-.237.142-.587.261-1.048l.261-1.026c.083-.336.257-.926.522-1.771.264-.845.446-1.505.543-1.981.042-.181.101-.429.178-.744.076-.314.128-.534.157-.66.013-.083.031-.206.052-.366.021-.161.038-.276.052-.346a5.11 5.11 0 01.209-.838c.111-.349.181-.594.209-.734.111-.558.188-1.069.23-1.53.013-.251.115-.492.303-.723.188-.23.393-.373.616-.429a.355.355 0 01.146-.021c.306 0 .473.182.502.545a.955.955 0 00.167.44c.167.209.299.517.397.922.445 1.844.786 3.227 1.024 4.149.194.769.487 1.635.877 2.599.682 1.69 1.205 3.094 1.567 4.212a65.646 65.646 0 001.066 3.122c.111.294.18.538.208.734zm-3.614-5.134l-.251-.818c-.585-1.774-.968-3.052-1.149-3.835a11.23 11.23 0 00-.156-.649 7.882 7.882 0 01-.178-.818c-.028-.125-.07-.188-.125-.188-.07 0-.119.063-.147.188a.237.237 0 00-.021.105c-.055.21-.132.692-.229 1.446a27.909 27.909 0 01-.732 3.416c-.014.056-.07.224-.167.503-.097.28-.153.503-.167.67a.329.329 0 01-.01.063.256.256 0 00-.011.063c0 .196.105.301.314.315.055 0 .17.003.344.01.174.007.31.018.408.031.069.015.174.022.313.022.153 0 .264-.007.334-.022.014 0 .133-.021.356-.062.222-.042.389-.063.501-.063H142.23c.209 0 .313-.077.313-.231a.455.455 0 00-.021-.146zm-8.704 5.322c-1.253.14-2.312.21-3.176.21-.432 0-.94.035-1.525.105h-.104-.188c-.711 0-1.296-.343-1.755-1.027a3.277 3.277 0 00-.23-.314 1.45 1.45 0 01-.334-.964c0-.21.027-.399.083-.566.056-.224.084-.384.084-.482v-.126a1.11 1.11 0 01-.021-.251c0-.168.028-.433.083-.797.042-.321.077-.817.105-1.488.083-1.425.132-2.493.146-3.206v-.377-.461-.356c0-.154.007-.374.021-.66.014-.287.021-.5.021-.64v-.146a.292.292 0 00-.021-.126c-.084-.182-.125-.454-.125-.817v-.65a2.691 2.691 0 01-.126-.817c0-.168.007-.301.021-.398.042-.378.063-.573.063-.587 0-.294-.035-.545-.105-.755a1.156 1.156 0 01-.041-.272c0-.363.209-.622.626-.776.293-.097.53-.146.711-.146.18 0 .389.035.627.105.153.041.372.066.658.073.285.007.477.017.574.031.209 0 .505.004.888.011.383.007.679.01.888.01h.397c.306 0 .571.105.794.315.111.098.296.216.554.356.257.14.414.224.47.251a.903.903 0 01.438.503c.042.126.063.238.063.336a.75.75 0 01-.209.534c-.139.147-.327.227-.564.241a3.358 3.358 0 01-.439.021.912.912 0 01-.125-.011 6.862 6.862 0 00-.752-.031h-.501c-.335 0-.585-.014-.753-.042-.989-.126-1.616-.23-1.88-.314a.335.335 0 01-.104-.021.58.58 0 00-.209-.042.372.372 0 00-.23.063c0 .042-.014.063-.042.063a.557.557 0 01-.01.073.372.372 0 00-.011.073c0 .07.014.189.042.356.028.238.052.587.073 1.048.021.462.031.741.031.839.028.07.063.272.105.607.055.392.111.678.167.86.097.307.16.635.188.985a.736.736 0 00.23.461c.167 0 .508.049 1.024.146.417.07.661.105.731.105.264 0 .508-.042.731-.126a.717.717 0 01.209-.042c.084 0 .153.029.209.084.028.014.16.115.397.304.237.189.41.346.522.472.181.209.272.377.272.503a.683.683 0 01-.042.167c-.125.28-.355.461-.689.545-.293.07-.641.105-1.045.105h-.522c-.154 0-.387-.007-.7-.021a17.305 17.305 0 00-.7-.021h-.021c-.195 0-.293.098-.293.293l.021.021v.021c.014.224.021.566.021 1.027V28.549c0 .056-.003.133-.01.231a2.898 2.898 0 00-.011.23c0 .238.112.377.335.419.25.042.501.063.752.063.139 0 .362-.014.668-.042.306-.028.544-.042.711-.042.027 0 .073.004.135.011.063.007.108.01.136.01.084-.042.216-.063.397-.063h.146a.987.987 0 00.23-.021.555.555 0 01.251-.063c.111 0 .222.036.334.105.627.392 1.108.797 1.442 1.216.125.14.188.272.188.398 0 .084-.042.209-.125.377-.251.475-.676.747-1.275.817zm-8.441-13.244a9.195 9.195 0 01-.605.084 4.956 4.956 0 00-.774.199 2.86 2.86 0 01-.793.157c-.279.014-.732.049-1.359.105-.167.014-.275.042-.323.084-.049.042-.073.147-.073.314v.042c0 .238.003.608.01 1.111s.01.873.01 1.111v.062c.042.196.063.378.063.545 0 .112-.007.28-.021.503a8.816 8.816 0 00-.021.503v.188c.014.168.021.441.021.818 0 .377.014.671.042.88a.591.591 0 01.125.398v.168c-.014.196-.045.468-.094.817-.049.35-.08.601-.094.755-.028 1.047-.076 1.725-.146 2.032-.056.811-.118 1.398-.188 1.761a7.698 7.698 0 01-.094.324c-.049.161-.073.29-.073.388v.063c0 .112-.077.216-.23.314-.083.056-.216.189-.397.399-.167.209-.348.314-.543.314-.14 0-.313-.084-.522-.252-.056-.056-.084-.112-.084-.167 0-.042.007-.077.021-.105.083-.182.125-.419.125-.713 0-.139.077-.768.23-1.886.028-.167.042-.412.042-.733v-.608-.021-.188c0-.587-.014-1.467-.042-2.641 0-.237-.018-.593-.052-1.069-.035-.474-.06-.831-.073-1.068 0-.42-.035-.789-.105-1.111v-.105c.014-.195.032-.489.053-.88.02-.391.031-.684.031-.88 0-.056.007-.091.021-.105 0-.014.003-.031.01-.052a.178.178 0 00.011-.053v-1.11-.021c0-.196-.077-.321-.23-.377a8.038 8.038 0 00-2.131-.587c-.126-.014-.39-.091-.794-.231-.196-.055-.307-.202-.334-.44a.773.773 0 00-.021-.209.295.295 0 00-.011-.063.28.28 0 01-.01-.063c0-.126.052-.283.156-.472.105-.188.164-.296.178-.324.084-.224.348-.364.794-.42.111-.013.299-.027.564-.041.264-.014.466-.035.606-.063h.084c.083 0 .146.014.188.042.194.125.438.188.731.188.097 0 .271-.014.522-.042.293-.042.446-.063.46-.063h.104c.028-.042.132-.083.314-.125.041-.014.689-.105 1.943-.273a5.447 5.447 0 001.191-.293c.013-.014.069-.021.167-.021.571 0 .982.07 1.232.209.195.112.321.388.376.828.056.44.098.702.126.786.069.182.104.363.104.545 0 .209-.028.398-.083.566-.042.154-.154.244-.335.272zm-11.209 13.234a3.5 3.5 0 01-2.078.807.642.642 0 00-.105.01.695.695 0 01-.083.011c-1.045 0-1.993-.469-2.842-1.404-.223-.252-.453-.727-.689-1.425-.182-.559-.272-.999-.272-1.321 0-.083.014-.321.042-.712v-.021c0-.014-.004-.063-.011-.147a2.556 2.556 0 01-.01-.209c0-.363.063-.643.188-.839.139-.209.355-.398.648-.565a.302.302 0 01.188-.063c.418-.042.703-.063.856-.063.46 0 .711.098.752.293v.231c0 .433-.035.838-.104 1.215-.042.28-.063.524-.063.734 0 .67.209 1.187.627 1.55.209.196.418.329.627.399.013.014.042.021.083.021.181 0 .39-.112.627-.336.237-.223.369-.419.397-.586a17.7 17.7 0 00.105-.598c.041-.258.08-.492.115-.702l.094-.587c.027-.223.041-.384.041-.481 0-.336-.062-.755-.188-1.258a4.155 4.155 0 00-.083-.314 8.517 8.517 0 01-.105-.377 2.858 2.858 0 01-.062-.315c-.084-.363-.317-.705-.7-1.027a6.577 6.577 0 00-1.233-.817c-.439-.223-.874-.552-1.306-.985a3.163 3.163 0 01-.856-1.467c-.098-.335-.147-.747-.147-1.236 0-1.16.209-2.04.627-2.641.376-.545.787-.985 1.233-1.32.292-.223.661-.335 1.107-.335.543 0 1.104.157 1.682.471.578.315 1.027.647 1.348.996a.356.356 0 01.104.125c.264.629.431 1.188.501 1.677v.189a.2.2 0 01.063.146v.063c.028.098.042.224.042.377 0 .029-.004.098-.01.21-.008.112-.011.21-.011.293v.168a.409.409 0 01-.177.283.793.793 0 01-.303.146 7.341 7.341 0 01-.429.074 9.027 9.027 0 00-.386.063.465.465 0 01-.147.021c-.181 0-.334-.084-.459-.252-.209-.279-.335-.531-.376-.754a2.063 2.063 0 01-.042-.252c0-.055.014-.129.042-.22a.856.856 0 00.041-.241c0-.083-.007-.16-.02-.23a3.432 3.432 0 00-.188-.566c-.251-.503-.558-.754-.92-.754a.54.54 0 00-.167.021c-.014.041-.049.062-.104.062-.14.21-.286.392-.439.545-.321.35-.481.888-.481 1.614 0 .349.063.629.188.838.181.308.404.545.669.713.111.07.23.15.355.241.126.091.223.171.293.241.069.07.177.174.324.314l.282.272c.25.224.403.35.459.378.126.07.23.153.314.251.306.377.633.748.982 1.111.431.475.668 1.048.71 1.718.014.168.045.437.094.807.049.37.08.66.094.87v.314c0 .741-.063 1.481-.188 2.221-.167 1.048-.554 1.82-1.16 2.316zm-14.477-8.358c-.149 0-.232.059-.249.174-.033.166-.103.56-.211 1.183a62.859 62.859 0 01-.297 1.617c-.092.457-.162.752-.211.884v.025c0 .183.289.564.868 1.145.066.066.298.365.695.896.05.067.207.216.472.448.264.233.504.465.719.697.215.232.331.44.348.622l-.993 1.12-.05.025c-.016 0-.024.009-.024.025-.017.116-.108.191-.273.224-.017 0-.046.017-.087.05-.042.033-.079.049-.112.049h-.05a1.104 1.104 0 01-.297-.199c-.116-.099-.207-.157-.273-.174-.199-.116-.546-.402-1.043-.859-.496-.456-.843-.75-1.042-.883l-.074-.075-.025.025-.025-.025c-1.257 1.709-2.639 2.564-4.144 2.564a.715.715 0 01-.124-.013.803.803 0 00-.099-.012.93.93 0 01-.335-.062 5.152 5.152 0 01-.348-.15 1.77 1.77 0 00-.285-.111c-.414-.15-.761-.449-1.042-.897a20.283 20.283 0 01-1.315-2.464c-.116-.249-.174-.555-.174-.921 0-.199.025-.505.074-.921.05-.414.075-.713.075-.896 0-.032.016-.091.049-.174a.705.705 0 00.05-.149c.348-1.41 1.009-2.497 1.985-3.261.083-.05.124-.099.124-.149 0-.033-.024-.075-.074-.125-.331-.431-.621-.987-.869-1.667a.278.278 0 01-.049-.087.282.282 0 01-.025-.087 1.142 1.142 0 01-.174-.399 2.785 2.785 0 00-.099-.323 2.591 2.591 0 01-.174-.946c0-.299.075-.805.224-1.518 0-.05.008-.083.024-.1.083-.132.157-.381.224-.747.099-.647.355-1.153.769-1.518.116-.099.293-.228.533-.386.24-.157.377-.244.41-.261.016-.016.041-.025.074-.025.033 0 .058-.008.075-.025.628-.199 1.117-.315 1.464-.348.298-.033.521-.05.67-.05.198 0 .347.017.447.05a1.746 1.746 0 00.372.049c.397.067.711.2.943.399.049.05.252.203.608.46.355.258.599.482.732.672.132.191.198.428.198.71s-.083.597-.248.946l-.025.024c0 .034-.008.05-.025.05-.099.083-.24.125-.421.125a.61.61 0 01-.497-.249 1.512 1.512 0 00-.322-.249 3.1 3.1 0 01-.571-.448c-.232-.249-.563-.374-.993-.374-.645 0-1.215.291-1.712.871-.049.05-.074.084-.074.1a1.398 1.398 0 01-.149.349 1.308 1.308 0 00-.149.348c-.099.465-.149.813-.149 1.045 0 .283.058.548.174.797.049.116.128.282.236.498l.235.473c.017.033.257.398.72 1.095l.074.074c.133.1.331.316.596.648.413.464.637.721.67.771.116.183.248.365.397.548.149.182.323.39.521.622l.447.523c.066.066.115.099.149.099.032 0 .049-.016.049-.049.017-.083.037-.245.062-.486.025-.24.058-.46.1-.66.041-.199.086-.356.136-.472a.441.441 0 00.025-.175.256.256 0 00-.149-.248c-.447-.183-.728-.324-.844-.424-.529-.199-.935-.431-1.216-.697a.238.238 0 01-.074-.174c0-.116.078-.257.236-.423a1.63 1.63 0 01.434-.348.612.612 0 01.273-.075h.298c.016 0 .297-.025.843-.075.281-.033.662-.05 1.142-.05.231 0 .566.009 1.005.025.438.017.781.025 1.03.025.397 0 .711-.008.942-.025.05 0 .125-.004.224-.012s.165-.013.198-.013c.265 0 .422.075.472.225.116.232.215.696.298 1.393.033.233.049.374.049.423 0 .216-.165.341-.496.374-.745.083-1.572.133-2.481.149zm-3.76 4.318a2.478 2.478 0 00-.161-.248 2.76 2.76 0 00-.124-.162 8.247 8.247 0 00-.41-.573c-.19-.249-.335-.439-.434-.572a2.566 2.566 0 00-.285-.374c-.108-.115-.24-.248-.397-.398a3.683 3.683 0 01-.335-.348c-.05-.05-.092-.075-.124-.075a.45.45 0 00-.125.05c-.397.332-.67.631-.818.896a4.68 4.68 0 01-.211.349 3.845 3.845 0 00-.261.46 2.254 2.254 0 00-.149.411c-.132.614-.198.979-.198 1.095 0 .216.033.398.099.547.314.847.868 1.428 1.663 1.743.032 0 .124.041.273.124a.28.28 0 00.086-.012.592.592 0 00.087-.038.2.2 0 01.075-.025c0-.033.024-.049.074-.049 0-.033.016-.05.05-.05.066-.066.107-.1.124-.1 0-.033.025-.05.074-.05 0-.033.025-.049.075-.049l.049-.05c.033-.033.058-.05.075-.05a.757.757 0 00.062-.074.855.855 0 01.074-.088l.075-.074a.292.292 0 01.087-.062c.115-.183.272-.473.471-.872.198-.398.355-.688.472-.871a.364.364 0 00.049-.199.447.447 0 00-.062-.212zm-13.628 2.493a5.429 5.429 0 01-.053.445l-.021.021a.682.682 0 01.042.192.518.518 0 01-.053.233c-.035.07-.092.159-.169.265a1.924 1.924 0 00-.138.202c-.253.396-.634.65-1.142.764a2.58 2.58 0 00-.518.148 2.768 2.768 0 01-.518.149c-.029 0-.071.028-.127.085a.533.533 0 01-.222.159 9.872 9.872 0 01-.201.074 1.581 1.581 0 01-.265.042 5.25 5.25 0 01-.222.021 1.996 1.996 0 01-.349.022c-.162 0-.293.014-.391.042a.084.084 0 00-.043.011.092.092 0 01-.042.01.672.672 0 01-.19-.042 2.55 2.55 0 00-.677-.106h-.021c-.043 0-.135.007-.275.021a3.542 3.542 0 01-.318.021c-.225 0-.367-.042-.423-.127a1.573 1.573 0 01-.127-.658c0-.085.007-.219.022-.403.013-.184.021-.325.021-.424a.63.63 0 00-.032-.17.635.635 0 01-.032-.148l-.063-2.547v-.36-.467c0-.438-.029-.835-.085-1.188a.757.757 0 01-.021-.213c0-.042.003-.109.011-.201.006-.092.01-.159.01-.202v-.106a49.57 49.57 0 01-.106-1.252c-.042-.565-.07-.989-.084-1.273v-.042c0-.056.007-.134.021-.233.014-.099.021-.17.021-.213v-.021l-.021-.042a15.147 15.147 0 01-.042-1.337v-.403-.615-.318c0-.043-.004-.107-.011-.192a2.595 2.595 0 01-.011-.191c0-.085.004-.226.011-.424.007-.198.011-.339.011-.424l.021-.021v-.043c0-.17-.05-.325-.148-.467-.071-.085-.106-.212-.106-.382v-.042-.297-.849c0-.056-.007-.198-.021-.424a9.131 9.131 0 01-.021-.53c0-.354.035-.595.105-.722.099-.198.303-.297.614-.297.042 0 .106.004.19.011.085.007.148.01.191.01.112 0 .197-.007.253-.021.113-.014.31-.035.593-.064a8.817 8.817 0 00.708-.095.185.185 0 01.053-.011c.014 0 .049.014.106.043.127.056.268.085.423.085.085 0 .212-.014.381-.043.127-.014.324-.021.592-.021.437 0 .853.05 1.248.148l.593.128c.281.056.475.106.581.148a.788.788 0 01.296.223c.092.106.138.258.138.456 0 .071-.014.206-.042.403-.043.255-.096.418-.159.488-.064.071-.173.106-.328.106h-.169-.191c-.155.015-.38.022-.676.022-.311 0-.544-.014-.699-.043-.888-.141-1.417-.212-1.586-.212h-.106c-.169 0-.437.042-.804.127-.183.043-.275.17-.275.382v.043c.056.778.106 1.336.148 1.676.043.354.12.937.233 1.75.113.814.19 1.44.233 1.878 0 .057.042.7.127 1.931.013.212.127.339.338.382.07.014.176.021.318.021.338 0 .627-.056.867-.17.225-.085.394-.127.507-.127.155 0 .282.035.381.106.437.311.663.623.677.934v.276c0 .127.007.219.021.275v.043a.211.211 0 01-.074.169 1.14 1.14 0 01-.254.149l-.222.106c-.324.212-.74.396-1.248.552a2.353 2.353 0 01-.486.085.802.802 0 01-.296-.043.37.37 0 00-.148-.021.695.695 0 00-.17.042l-.063.191c0 .099-.008.241-.021.425-.015.184-.025.35-.032.498a8.902 8.902 0 00-.011.414c0 .368.014.644.043.828.013.155.045.258.095.307.049.05.144.074.285.074h.022c.267 0 .655-.042 1.163-.127a34.21 34.21 0 011.248-.191c.254-.028.451-.092.592-.191a.59.59 0 01.296-.106c.057 0 .233.057.529.17.099.042.148.12.148.233a.329.329 0 01-.042.128c-.056.113-.095.283-.116.509zM79.057 1.873l-.013.073c.001.014-.006.019-.006.03l.002.042c-.006.009-.006.02-.02.031.001.015.001.019-.005.029-.019.021-.011.043-.017.07.001.009-.02.04-.03.055-.008.011.002.025-.007.029 0 .002-.006.002-.01.012-.014.008-.012.034-.032.039l.002.029c-.007.024-.035.053-.04.075.001.021-.036.035-.038.044 0 .014-.014.028-.018.036 0 .006-.02.008-.019.023l.001.011c0 .012 0 .012-.011.016-.007.01-.009.031-.014.034-.005.014-.009.001-.013.009l-.002.018c0 .006.001.027-.012.033a.508.508 0 01-.032.021c.001.008-.005.023-.005.028-.008.02.009.033.01.054-.007.001-.008-.01-.024-.01l.001.011-.034.002c-.011.001-.029.022-.039.051-.007.025-.006.045.015.065.001.029.002.046-.016.072l.002.028c-.028-.005-.012.018-.019.038-.005.031-.006.011-.024.002-.004.021-.014.022-.034.032l.003.04c0 .015.001.028-.008.031-.007.02.002.02-.022.028l-.005.01v.007c-.004 0-.014.025-.022.001-.013.001 0 0 0-.007l-.048-.007.001.009-.023.002c-.016.007-.016 0-.026.008-.006.025.002.042-.005.047 0 0 0-.01-.022-.009l.002.036c.001.015 0 0-.002.015-.015.007-.019.012-.035.002-.02-.014-.001-.015.004-.027.009-.015-.006-.018-.01-.014-.022.001.001.026-.013.036-.007.017-.024.013-.034.021-.015.021-.015.03.003.044.013.024.02.036.012.056-.009.017-.025.017-.024.029-.006.013-.006.02-.018.03-.008.001-.05.04-.051.019l-.014-.015c-.003-.01 0-.01.013-.011 0-.007.017-.021.016-.032-.001-.013-.019-.027-.035-.026l-.018.029c-.014.007-.006 0 .001.016.009.015.001.015-.005.025 0 .017-.013.029-.016.038a.15.15 0 00-.027.019c-.02.017.003.044-.018.056-.031.002-.053-.009-.083.005.002.037-.035.064-.044.071l-.011.02c-.008 0 0 0 0 .008-.007.011-.021.012-.025.02-.016.013-.01.028-.014.04a.1.1 0 01-.036.017c-.016.007-.012.007-.014.035 0 0-.02.006-.02.008-.02.01-.02.019-.041.029.001.015.001.027-.015.039 0 .008-.005.011-.005.019-.033.019-.016.018-.015.038-.027.002-.017.016-.026.027.001.012-.022.013-.028.023-.023.021-.022.03-.039.049-.017.028-.021.054-.032.072-.016.015-.032.018-.04.049-.021.013-.035.037-.047.051-.011.018-.022.031-.025.057-.016.009-.02.047-.032.058l-.024.001c0 .01-.006.024-.022.033a.739.739 0 01-.119.162c-.014.03-.033.07-.035.102-.011.029-.011.029-.039.04-.023.02-.021.055-.047.087-.013.023-.036.039-.043.074 0 .007.011.033-.006.047-.014.015-.028.015-.046.024l.018.004c-.024.027-.084.056-.037.092-.013.012-.044.021-.044.029-.013.023-.012.04-.021.074-.055-.03-.018.095-.034.121-.036.002-.035.013-.041.03-.013.019-.027.026-.046.036-.017.029-.029.069-.049.098-.011.025-.034.054-.045.089.001.01.001.015-.008.038-.012.035-.038.062-.049.081a.131.131 0 01-.014.069c-.012.014-.011.037-.022.054.001.015-.017.016-.017.016a.102.102 0 00-.005.041c-.01.021-.031.037-.03.059l.002.034-.02.023c-.019.039-.031.08-.048.12-.019.035-.017.071-.037.096-.014.026.002.047-.012.063-.014.022-.025.016-.027.022l.001.018-.057.106c.002.026.002.026-.008.053-.01.006-.031.035-.016.048h.008c-.041.06-.051.119-.073.183-.053.098-.087.207-.121.314-.014.022-.043.156-.07.163l.001.019c-.028.004-.016.052-.024.068 0 .008.001.022-.001.034-.002.007-.02-.011-.027.008a.13.13 0 00.01.033c.001.018-.008.011-.014.028a.207.207 0 01-.055.091c.001.016-.005.016-.004.024-.007.011.001.024.002.041-.021.004.002.05-.035.041l.004.071c-.01.019-.026.014-.031.02l.002.03c-.009.038-.051.077-.07.12l.004.063c-.005.013-.017.024-.027.044a.606.606 0 00-.036.119c-.013.036-.036.067-.047.104-.007.022-.028.068-.027.088.029.008.002.032-.007.044-.003.02-.001.05 0 .067-.009.034.014.033.034.06.001.01-.016.034-.024.053 0 .011.002.054-.012.059l.001.021c-.021.001-.019.033-.019.033-.003.005-.005.015-.014.015 0 0-.002.018-.015.023-.019.017-.03.029-.029.039-.012.034-.002.074-.019.106a.286.286 0 01-.061.071c-.012.022.011.021.013.047a.071.071 0 01-.022.046.285.285 0 01-.042.089c-.002.069-.085.095-.081.164.001.015-.018.048-.024.072-.025.028-.025.041-.024.079l.002.039s-.036.042-.035.057c0 0-.01 0-.009.008-.03.022-.029.044-.028.07l.002.031c.001.016-.021.031.001.031.001.016.001.016-.021.023l.001.013c0 .007-.025.045-.025.053-.006.016-.005.041-.005.041-.002.033.003.046-.014.063 0 .005-.018.012-.017.032l-.007.027c.009.011.003.059.013.081 0 .009-.008.019-.008.028-.006.012-.009.027-.024.028-.013-.014-.012.001-.011.013 0 0-.001-.007-.007 0-.012.008-.012.023-.012.023.014.011.014.024.014.024l-.012.014.002.034c.001.01-.002.021-.002.026-.005.018-.013.018-.019.026l-.009.009c0 .018-.007.01-.029.019-.011.001-.011.018-.019.025-.017.029-.016.061-.023.078-.008.01-.008.024-.009.036.001.021-.017.044-.016.062-.009.019.002.029-.008.05-.005.013-.018.023-.025.024l.003.059-.033.031a.25.25 0 01-.003.064c-.007.025.003.056-.004.084 0 .01.002.032-.007.048l-.023.019v.036c.001.009.003.022.002.038-.002.009-.026.01-.026.01-.022.022-.015.03-.021.041-.005.01-.018.032-.017.045 0 .004.014.003.015.023.006.013.002.042-.001.043-.01.011-.032.012-.041.035-.008.011-.008.02-.007.038.001.013.009.014.01.036.001.012-.007.013-.021.033-.003.013.001.022.002.046.002.029-.002.044-.035.069-.022.015-.021.044-.021.069-.027.024-.025.051-.031.082-.005.023-.003.062-.013.083 0 .013-.01.031-.01.046 0 0 .001.009-.008.016 0 0-.005.001-.021.017a.228.228 0 01-.029.098c.001.032.003.07-.001.1a.143.143 0 00.007.031c.02.008.035.013.02.021-.018.004-.018.001-.023.026-.011.016-.018.016-.025.044v.051c.036-.001.003.065.005.084-.004.032-.033.049-.054.074-.008.014-.018.052-.005.075.004.011.018.014.033.031 0 .014-.013.032-.012.048a.194.194 0 00-.014.051.087.087 0 00-.049.045s-.014.023-.013.038c0 .006.001.028-.016.038.003.041.008.07-.011.097a.44.44 0 01-.016.088c-.011.015-.011.017-.029.03-.004.011-.009.021-.024.027a.181.181 0 00.021.105c.007.034.043.042.06.064-.006.016-.005.042-.009.056-.003.016-.003.033-.015.039-.017.021-.027.021-.047.041-.03.022-.027.077-.041.124.002.03-.011.05-.034.067-.018.001-.024.019-.041.027l.002.047c.001.031-.021.049-.032.074a.28.28 0 01-.003.083c.001.031-.009.055-.017.088 0 .05-.018.095-.039.137-.005.038-.026.066-.025.101l.016.023c.002.029.002.029-.005.053a.42.42 0 01-.065.165c-.028.056-.048.108-.076.16-.02.058-.046.103-.044.157-.009.02-.018.041.003.059.001.021.029.026.003.058.001.008-.021.025-.025.041-.015.022.002.043.008.064.001.021.002.053-.018.067.001.022-.005.027-.004.044-.006.009-.031.011-.03.016-.008.022.001.021.001.028.016.014.017.036.017.047-.014.007-.014.016-.021.029l.006.117c.001.031.003.058-.002.081l.002.036c.001.026-.016.013-.021.028l.004.073c-.007.033-.013.048-.005.087.001.014.002.025.011.034.012.006.022.006.023.023.002.03-.019.043-.027.076-.005.022.002.04.013.068.001.02-.007.036-.006.068-.006.003-.005.017-.005.024.001.013-.028.024-.027.041.001.015-.014.027-.019.048-.01.015-.01.019-.021.033l.001.033c-.017.011-.004.025-.015.042 0 .013.001.021-.007.033-.006.018-.009.045-.034.046-.02.012-.02.027-.02.027-.013.005-.033.006-.045.014-.02.018-.035.03-.048.052-.008.024-.029.054-.029.066-.01.024.003.054-.013.083-.009.023-.028.039-.027.073a.231.231 0 01-.003.074c-.005 0-.008.005-.007.015l-.01.007.003.045c-.011.031-.028.043-.027.064a.114.114 0 00-.014.069c0 .008-.009.02.002.029l.001.03c-.01.009-.009.027-.015.03.001.012.007.023.002.029-.02.037-.075.053-.09.08-.014.028-.012.062-.011.086.006.025.002.046-.015.063.001.025-.021.034-.035.054-.016.034.003.078-.012.11l.002.032c.001.012-.008.013-.007.033 0 0-.015.033-.015.041-.021.005-.029.016-.038.04l.003.067-.029.001c.001.014.001.021-.007.022-.012.006-.012.006-.019.027-.006.01-.024.034-.023.054l.012.017c0 .007-.016.008-.016.018-.014.013-.013.025-.013.04.001.02.002.032-.012.042.001.017-.003.018-.003.027.001.014.006.027.002.038.001.015-.015.025-.014.036-.007.005.001.019-.005.044 0 .01 0 .01-.005.024-.015.016.003.046-.018.064-.007.019-.006.025-.012.057.001.023-.022.04-.021.058l.002.04c.001.005-.016.013.002.025 0 .008-.004.019-.016.032 0 .005-.008.03-.008.036-.007.016-.007.016-.011.032 0 .011.007.033.001.039.001.008-.009.009-.008.024.001.015.011.024.012.046-.005.027-.02.006-.039.014-.002.013.002.032.003.05-.002.021 0 .05-.01.082 0 0 .001.009-.005.014l-.014.001c-.006.011.002.035-.004.045 0 .012.001.027-.009.033.001.019.001.022-.013.035 0 .023.001.05-.01.083 0 0 .014.028.001.028.001.016-.02.017-.019.029-.003.008.001.023.002.033.001.02-.003.02-.002.035-.021.032-.011.073-.017.112 0 0-.003.009.001.017 0 .006.007.001.008.006-.007.005-.027.006-.026.038-.002.012.028-.002.029.027-.038-.006-.019.037-.028.051-.006.029-.025.049-.027.075a.53.53 0 01-.02.152.252.252 0 00-.026.064l.002.046s.001.007-.004.025c0 .006.008.042.008.053-.004.014-.015.004-.014.017-.017.014-.016.023-.016.037.002.025.005.044.004.069.001.019-.01.047-.009.065a.131.131 0 00-.016.053.145.145 0 00-.01.073c.001.029-.01.044-.009.067l.004.071c-.006.026-.02.041-.038.064-.004.021-.003.045-.002.072.001.009.002.037-.016.04.001.016-.01.026-.01.035l.013.007-.012.01.002.043c.002.036-.015.076-.004.099.011.024.001.025-.023.049l.001.035c.001.004.001.013-.013.031a.171.171 0 00-.02.089c.002.03.002.037-.009.061a.14.14 0 00-.012.077c-.015.019-.027.043-.026.064.002.036.031.033.047.047l.002.032c.001.015.001.015-.014.027.002.036 0 .041-.027.054-.01.031-.009.043-.002.067.001.014.001.03.007.03.001.02.032.033.032.033.001.02-.014.048-.032.068-.021.018-.03.019-.039.056l.002.031.016-.001c.003 0 .019-.001.026.012.006.011.002.037.003.062.001.024-.004.04-.021.077-.016.02-.022.042-.061.044 0 0-.014-.009-.028-.008-.013.01-.016.025-.015.043-.013.024.002.048-.006.072-.022.102-.067.208-.041.301l.003.053c.012.013.024.013.03.026l.002.033c0 .014.011.014.011.021.014.024.002.025-.008.045 0 0 .012.019.012.034.014.017.015.034.016.062.002.031-.02.054-.019.085-.004.026.003.062-.001.086.001.015.002.024-.01.038.001.009-.01.01-.009.027.001.019.002.053-.019.066 0 .006-.005 0-.028.007.001.017.001.017-.003.026-.011.018-.011.009-.011.022l.001.012-.014.012c-.007 0-.026-.01-.025.001.001.014.018.013.018.013-.017.011-.017.001-.021.011l.001.012c-.017.001-.016.016-.016.016s.001.02-.004.031c-.014.012.002.027-.013.035l.001.025c-.009.015.001.021.002.033l.002.045.021.008.017.014.001.006c.001.018.005.028.002.044.001.013.001.018-.015.023a.059.059 0 01-.018.052l.001.014c-.009.03-.018.031-.017.048.001.02.001.03-.01.036l.004.094-.02.018v.009c-.017.024-.015.054-.032.065a.33.33 0 00-.037.121c.008.034.034.041.026.061-.015.028-.02.056-.013.066.001.012.023.03.029.058.001.014-.008.036-.024.044-.006.008-.005.03-.004.054l.002.032c-.015.007-.026.034-.013.05.001.017.001.009.016.016l.004.079c.01.043.029.108-.008.137l-.021.013-.014.011c-.015.005-.015.011-.014.02-.029.002-.046.02-.044.054l.002.03c-.013.008-.013.015-.013.025.001.013-.005.031-.004.041 0 .003.02.002.021.013.01.022.028.033.028.033 0 .018-.016.019-.025.037l.001.019-.005.006c-.008.006-.007.025-.007.025.014.007.062.03.057.039l-.041.002c-.014 0-.013.005-.019.015l.002.039c-.014 0-.013.022-.013.026l.002.034c.001.021.007.013.002.035a.133.133 0 00-.007.074c.001.017.013.054.004.077-.003.007-.002.024-.015.024-.007.016-.019.016-.025.021-.02.002-.013.037-.007.064.011.017.018.041-.002.057-.006.012-.006.016-.006.027.001.019-.006.038.002.037.001.008.004.023.002.034.001.022-.006.034-.006.042.001.013.001.013-.013.029l-.019.01.002.031c-.008.017-.008.017-.007.036 0 .013.001.022-.006.036l.001.032s-.02.01-.019.019l.007.138c-.013.018-.013.018.002.036.017.007-.012.031-.011.053l.014.014-.025.001c-.004.018.001.025.001.031.001.011.013.01.014.025l.002.038c.001.02-.011.034.016.055.017.007.039.032.057.024.023-.007.014-.035.044-.021.001.016.007.019.008.036.001.005.001.015.005.02 0 0 .008-.005.009.01l.001.007c-.009.006 0 .006 0 .012l.001.018s-.009.001-.012.013c.001.013.005.016.005.029.001.016-.008.03-.007.048 0 .008.019.007.02.016.021.009.021.022.022.045.001.009-.012.018-.012.022.002.028-.006.028-.004.053-.012.006-.011.035-.011.042-.014.033-.003.047-.002.068.001.026.009.056-.006.082-.009.003-.011.016-.034.017-.012.008.001.014.001.014-.019.007-.019.001-.019.007-.009.007 0 .007 0 .007.001.022-.007.033-.006.053.001.022.011.044.012.062.002.03-.014.043-.018.057-.015.022-.014.048-.013.067-.024.03-.028.03-.044.04-.009.001-.02.003-.02.012l-.008.01-.014.001c-.019.001-.017.039-.017.055-.004.017-.004.017-.015.018-.012.003-.011.019.001.02l-.012.001c.026.051-.017.042-.041.069.001.012.014.034.002.044.001.01-.015.011-.014.031l.002.04c.002.039.019.05.02.075l.001.027c-.015.012-.015.005-.014.03l.004.073c-.003.034-.008.051-.007.081.001.017-.002.053-.001.07-.013.017-.011.055-.02.084a.108.108 0 00.003.074c.013.032-.005.061-.004.088-.018.018-.035.038-.033.065.013.01.018.012.019.026.001.017-.017.026-.016.038.001.018.001.023.02.035l.001.026c.001.013-.005.02-.016.036l.002.045c.002.03.003.047.04.061.009.003.033.002.038.002.012.007.012.011.013.036.001.007 0 0 .016.006.026.011.001.025.014.039.014.01.019.008.025.024 0 .006.01.021.01.024.001.027-.031.029-.042.051.001.017.013.016.001.023l.002.023c-.016.006-.026.023-.032.011.005-.005-.024.001-.04.002-.011-.004-.011.012-.029-.003-.001-.005.017-.015.017-.015-.018-.004-.051.021-.034.02.001.012-.008.021-.011.022-.005 0 .001.027-.006.028h-.009c-.005.013.01.012.01.012.004.029.002.04.005.056.007.037.003.054.004.083l.002.029-.017.021c-.008.007.001.022-.006.032 0 .01-.002.015-.001.035 0 0 .003.015.002.025 0 .003-.014.003-.014.003-.007.004-.006.027-.006.027-.006.001-.007.009-.007.009l.001.023c-.013.008-.029.009-.036.026-.004.014.001.03.002.042-.004.012-.004.022-.015.033-.012.012-.011.029-.01.044 0 .01.009.023.002.039-.009.04-.008.056-.006.09.001.029-.027.046-.025.072.001.03.017.069.004.091l.003.046c-.01.021.001.031-.008.041-.004.018-.016.061.003.076l-.019.001c-.012.008.002.04.002.04.016.007.002.036.003.045 0 .012-.004.025-.003.047-.008.006.001.016-.006.034-.007.021-.007.021-.005.045.008.016-.001.054 0 .071.001.022.001.022-.013.043.001.016.001.016.016.026.002.037-.023.044-.022.075l.002.027s.01-.001.011.009c0 .012-.01.015-.01.015l.005.109c-.015.02-.014.048-.021.087-.004.009.001.027.001.033.001.02-.016.025-.015.04l.004.086c.001.01-.005.028-.005.028-.011.023.002.036.002.05.003.039-.008.067-.014.097-.007.025-.005.051-.004.071l.004.093c.002.024.003.056-.012.074-.004.006-.019.017-.018.035 0 .012.036.001.017.03 0 0-.016-.006-.016.001l.004.064c.001.033-.01.068-.009.085a.101.101 0 01.005.085c-.005.026-.023.051-.019.077.023-.001.016.002.001.023 0 .01.001.034-.001.036l.008.16s-.008 0-.014.014c-.009.01-.009.02-.008.033l.002.034c.001.034-.005.072-.003.095-.008.02-.014.023-.013.04-.01.017.025.047.003.061-.01.019-.019.053-.007.07.002.038-.008.053-.016.078.002.042.012.062.005.094 0 .006-.013.021-.013.021.001.02.009.026.01.042.002.045-.017.054-.015.088l.004.088c-.01.007-.01.007-.01.013 0 .007.011.006.011.006.001.018-.009.03-.009.04-.017.024.003.056-.008.089-.006 0-.029.042-.004.041.001.01.007.019.002.034l.004.068c0 .014-.01.022-.01.031-.014.01-.014.02-.013.025-.01.018.001.027.002.04.016.027.003.069.004.086.002.026-.008.056-.007.082l.002.035a.098.098 0 00-.017.068c-.008.014-.007.034-.007.048.01.015.019.021.012.046 0 0-.009 0-.02.005l.001.022c-.007.031-.029.047-.009.072.014.032.006.034.004.078a.128.128 0 01-.015.083l.005.098c.001.011-.011.012-.017.026l.002.04c-.005.022-.016.027-.016.033l.006.11c.001.018-.012.019-.011.036.001.006.013.005.013.005-.008.012-.012.012-.011.03l.002.03a.043.043 0 01-.014.029l.007.128c0 .006-.017.016-.016.035.001.027.003.062-.007.089 0 0 .013.028.002.028-.009.018-.024.018-.02.037.013.019.013.019.014.043l.001.013c-.012.008 0 .008.001.016.001.027.001.027-.01.044-.013.024 0 .052-.019.079.001.032-.008.06-.007.083l.005.084c-.016.022-.016.029-.015.048-.006 0 .001.014.002.027.002.037-.004.059-.006.095-.009.018-.008.039-.006.062.001.027-.012.056-.011.081a.19.19 0 01-.006.081c-.009.027-.011.049-.009.081l.004.084c.002.022.004.022.002.023-.014.018-.02.014-.019.025l.005.091c.001.033.003.057-.031.083-.01.024-.003.053-.007.083l.002.039c.001.019.006.001.024.018-.023.005-.023.005-.021.035a.24.24 0 00-.031.124l.004.084c-.011.031-.024.053-.029.078l.002.045c.001.014-.015.015-.017.032-.002.029.003.055 0 .082-.007.009-.007.028-.019.033-.003.016-.012.023-.012.034-.019.034-.018.058-.019.088-.01.025-.009.048-.024.069a.091.091 0 00-.011.055c-.006.016-.017.017-.023.034 0 .01 0 .01-.01.032-.014.001-.013.016-.012.03-.012.016-.023.023-.028.038-.009.01-.018.025-.018.025 0 .002-.007.002-.007.011-.008.018-.007.045-.021.055-.012.003-.011.02-.018.026-.02.016-.02.016-.031.027-.012.011-.029.03-.046.045-.03.014-.046.036-.062.058-.012 0-.02.017-.02.017-.011.014-.031.02-.045.021l-.03.023c-.017.006-.011.009-.021.029-.025.008-.034-.008-.041.002-.02.008-.014.019.009.024-.008-.006-.142.047-.158.048-.03.011-.05.022-.085.024l-.049.002c-.019.001-.03.018-.045.019-.025.009-.061.001-.081.004-.021.009-.037.003-.052.01-.016.001-.015.01-.039.016-.026.001-.049-.011-.069-.01-.03-.006-.048-.005-.068-.021a.307.307 0 01-.053.001c-.032-.009-.05-.028-.078-.038a.094.094 0 00-.061-.012c-.011-.017-.03-.016-.03-.032-.013-.009-.001-.014-.014-.018-.009-.009-.04-.017-.04-.017-.028-.001-.042-.005-.054-.018 0-.017-.015-.016-.031-.036-.005-.005-.006-.021-.019-.027 0-.011-.01-.011-.01-.011-.014-.008-.014-.008-.015-.025-.006-.006-.02-.005-.024-.02-.02-.014-.024-.039-.046-.057-.018-.006-.018-.016-.018-.016-.002-.039-.027-.057-.047-.071-.011-.022-.011-.029-.022-.044-.008-.004-.01-.018-.021-.03a.083.083 0 01-.023-.05c-.002-.021.011-.022.003-.036-.007-.039-.021-.057-.022-.077-.001-.029 0-.011-.014-.028-.006-.014-.002-.022-.002-.022 0-.018.013-.018-.001-.026-.006-.024-.023-.052-.031-.074l-.002-.042c-.001-.014-.014-.024-.015-.033-.013-.018-.001-.027-.014-.047-.001-.024-.003-.049-.028-.069-.001-.017-.005-.016-.002-.044l-.002-.031c-.004 0-.005-.025-.006-.039l-.003-.051c-.014-.02-.029-.027-.029-.032-.019-.019-.02-.025-.02-.037l-.005-.081c0-.011-.029-.022-.03-.033l.028-.007-.001-.025c-.012-.02-.031-.039-.031-.051-.001-.024-.003-.048-.026-.047-.008-.024-.001-.024-.002-.037.01-.019-.001-.023-.008-.034-.01-.006-.012-.052-.013-.066l-.002-.05c-.001-.011-.018.001-.018-.01-.012-.012-.001-.013-.002-.032-.013-.032-.052-.02-.038-.052.01-.004.01-.004.009-.027l-.001-.025c-.001-.01-.001-.01-.012-.02 0 0-.009.002-.001-.017 0 0 .008 0 .01-.009-.01 0-.01 0-.021-.023 0 0 .009-.011.008-.027 0-.015-.017-.033-.019-.061 0-.003.004-.039-.003-.056-.02-.004-.033-.004-.012-.03-.01-.02-.011-.046-.013-.073-.001-.026-.016-.064-.022-.086 0-.011-.011-.02-.025-.034-.011-.012-.001-.03-.002-.049-.001-.015-.012-.016-.012-.027l-.003-.056c-.001-.014-.002-.032-.015-.05-.015-.022-.002-.038-.003-.059-.001-.024-.016-.043-.029-.077-.002-.034-.023-.074-.025-.117-.002-.04-.004-.08-.018-.119-.014-.006-.015-.016-.016-.036 0-.006-.002-.034-.012-.033-.006-.014-.019-.022-.019-.029-.013-.021-.012-.017-.002-.029.012-.007.012-.007.011-.024l-.002-.044c0-.01.014-.036-.002-.035 0-.007-.012 0-.012 0-.012-.006 0-.006-.013-.029l-.003-.069a.245.245 0 01-.018-.086c-.002-.032-.033-.056-.035-.089-.002-.04-.003-.067-.012-.103l-.015-.024c-.01-.018-.001-.026-.002-.041-.001-.015-.01-.027-.011-.037-.018-.018-.002-.049-.018-.079-.001-.033-.008-.036-.02-.066-.012-.005-.013-.02-.02-.032-.007-.016-.013-.016-.031-.015-.024-.027-.026-.06-.003-.077-.002-.023.016-.012.021-.029l-.002-.051a.26.26 0 00-.023-.094c-.006-.015-.001-.03-.008-.045l-.001-.031c-.019-.014-.001-.022-.002-.041-.018-.003-.025-.014-.025-.03l-.003-.045c-.003-.011-.013-.022-.013-.033-.014-.01-.015-.022-.03-.032-.005-.006-.022-.021-.034-.038 0-.013.027-.001.031-.014.004 0 .014-.015.013-.032-.011-.011-.015-.012-.015-.017.013-.034.013-.034-.003-.046-.001-.017-.001-.018-.006-.033l-.002-.033c.004-.021-.001-.021-.002-.037 0-.015-.017-.025-.018-.039a.16.16 0 01-.014-.072c-.002-.037-.03-.058-.03-.075l-.005-.091c-.012-.02-.013-.041-.018-.067-.009-.009-.01-.029-.024-.038l-.028.001c-.002-.023-.021-.022-.038-.016l-.022.019c-.006.001-.015-.016-.02-.016-.009.018-.018.029-.03.019-.017-.017.011-.009.011-.018.024-.007 0-.006-.001-.024 0 0 .023-.01.031-.021a.075.075 0 00.028-.023c.016-.015.015-.035.033-.061 0-.011.012-.021.011-.034 0-.008-.013-.012-.014-.028l-.001-.027c-.006-.031-.002-.035-.022-.055-.005-.021-.02-.048-.044-.048-.014-.014-.019-.023-.039-.025-.011.001-.028.002-.043-.025-.006-.01-.007-.029-.009-.052.005-.016.018-.033.017-.053 0-.015.011-.027.015-.034.011-.022-.002-.042-.008-.056-.012-.025-.013-.037.014-.055.018-.018.017-.046.016-.066-.001-.012.01-.059-.022-.058l-.002-.03c-.001-.02.018-.026.018-.039-.011-.01-.021-.019-.033-.034l-.002-.042a.107.107 0 00-.035-.07c-.006-.014-.006-.014-.007-.036-.001-.023.012-.029-.002-.045l-.004-.08c-.034.001-.035-.076-.037-.106l-.001-.02c-.004-.027-.016-.027-.017-.034-.001-.013.014-.03.013-.054-.004-.008-.028-.025-.018-.05-.001-.006.012-.013.011-.03 0 0-.013-.01-.013-.014-.012-.012-.026-.023-.027-.043-.002-.035.005-.038.004-.066-.027-.001-.04-.009-.028-.026l-.003-.056c-.013-.01-.014-.024-.015-.037l-.002-.055c0-.004-.021-.003-.022-.015-.005-.018.007-.007.007-.019 0-.007-.008-.006-.008-.006-.006-.037-.003-.062-.009-.089 0-.007-.015-.017-.016-.035 0-.011-.006-.04-.003-.054 0-.007.014-.019.013-.031-.015-.017-.029-.009-.037-.028l-.004-.084c-.002-.031-.012-.066-.013-.093l-.002-.034s-.019.001-.019-.012c-.005-.016-.003-.047-.004-.064a.211.211 0 00-.006-.052c-.014-.021-.015-.04-.016-.043-.001-.027.012-.033-.002-.047-.001-.024-.022-.032-.002-.033v-.009l-.02.001a.15.15 0 00-.005-.095c-.001-.014-.016-.031-.017-.039 0-.014.013-.029-.001-.032v-.003c-.018-.009-.018-.014-.002-.024l-.002-.045a.134.134 0 01-.033-.089c-.001-.026.025-.065-.004-.079l-.029-.039c0-.012.01-.013.008-.041-.001-.025-.003-.059-.03-.075-.001-.021-.02-.02-.013-.038.008-.012.016-.013.01-.033-.001-.017-.013-.026-.014-.053l.01-.02c-.001-.016-.005-.037-.013-.04-.01-.032-.025-.034-.026-.062-.001-.02-.002-.041.01-.061-.002-.036-.043-.04-.044-.061a.116.116 0 01.016-.061c-.001-.022-.002-.035-.016-.048-.012-.036-.032-.082-.042-.11-.005-.032-.003-.06-.008-.103-.007-.027-.009-.051-.018-.083-.009-.021-.023-.034-.025-.072l-.003-.066c-.007-.031-.003-.066-.012-.115-.009-.032-.011-.07-.021-.109a1.617 1.617 0 00-.039-.146c-.016-.018-.016-.026-.017-.05l-.002-.036-.018-.01-.005-.104c-.011-.035-.013-.09-.016-.139-.001-.03-.001-.03-.019-.052-.006-.019-.007-.042-.014-.067-.014-.042-.016-.081-.023-.13-.002-.034-.002-.049-.01-.076 0-.01-.015-.01-.015-.013l-.002-.041c-.002-.023-.017-.036-.018-.066-.003-.05.006-.087-.024-.124-.005-.025-.005-.041-.007-.066-.005-.03-.018-.076-.02-.115-.01-.032-.011-.039-.024-.061-.018-.022-.003-.05-.004-.082-.002-.025-.018-.03-.02-.053l-.003-.061a5.422 5.422 0 00-.068-.279c-.008-.034-.011-.086-.027-.13a.238.238 0 01-.014-.054c-.001-.024.002-.056-.013-.061-.001-.022.008-.04.008-.051-.002-.029-.013-.048-.014-.071-.025-.04-.028-.084-.038-.123a.496.496 0 00-.031-.151c-.002-.033.012-.065-.004-.08-.001-.021-.024-.02-.036-.039-.002-.01-.002-.033-.004-.053-.046.035-.027-.077-.067-.075-.001-.024.032-.025.014-.04-.027.001-.017-.025-.018-.039a.481.481 0 00.008-.153c-.017-.015-.018-.046-.003-.06-.001-.018.001-.018.001-.029l-.004-.019c-.002-.043-.002-.102-.007-.14-.017-.03-.028-.029-.03-.062-.001-.035-.012-.061-.02-.087-.002-.024-.004-.06-.012-.096-.011-.032-.013-.072-.031-.114-.013-.028-.015-.063-.026-.102l-.002-.043c0-.004-.019-.014-.018-.032 0 0 .016-.001.016-.007-.002-.026-.002-.029-.021-.055-.012-.021-.002-.043-.014-.063-.003-.049-.005-.093-.024-.144-.01-.041-.017-.094-.028-.127-.001-.024-.012-.05-.013-.07-.008-.032-.003-.064-.012-.097-.008-.035-.011-.078-.036-.116-.015-.036-.004-.087-.021-.143-.004-.007-.006-.041-.017-.055 0-.017-.016-.017-.018-.048-.003-.052-.005-.094-.02-.148-.014.008-.028.056-.034.041.009-.04.028-.056.025-.108-.012-.046-.013-.07-.017-.119-.01-.015-.001-.023-.017-.035 0 0-.023.01-.039.002-.006-.012.006-.025.006-.029-.001-.018-.014-.017-.014-.027l-.002-.035c-.013-.001-.036.002-.036.002-.029-.009-.039-.031-.059-.054-.023-.053-.04-.09-.011-.136.003-.032.021-.037.001-.072-.018-.015-.048-.014-.066-.031-.007-.013.015-.049.014-.065a.052.052 0 00.009-.037c0-.005-.002-.044-.012-.022l-.019-.032c.016-.02.017-.006.027-.021l.026-.001c.005-.012-.001-.012.005-.017-.001-.009.022-.006.003-.022-.001-.018-.037-.027-.048-.029-.038-.023.01-.024.009-.038.014-.014-.001-.027-.002-.043l-.002-.042s-.012-.017-.013-.024c0-.011.026-.002.029-.012.035-.009.035-.018.033-.053-.019-.019-.03-.032-.056-.031-.035.002-.053.017-.064.038-.007.01-.011.061-.027.035-.013.001-.014-.023-.014-.023-.015-.009-.019-.009-.02-.023-.021-.019-.001-.037.009-.053.006-.017-.001-.023.005-.036 0-.009 0-.009.012-.025-.001-.022-.014-.029-.002-.042-.001-.014.009-.015.013-.027 0-.009-.015.001-.027.001 0 .006-.019.001-.019.001-.03-.007-.032-.03-.049-.054-.001-.017-.001-.017-.017-.023l-.007-.017c-.02-.006-.026.001-.036-.011-.014.001-.028-.008-.043-.007-.007 0-.015.01-.026.002l-.019-.016c-.007-.013-.046-.011-.064.003-.019.001-.028.018-.057.029 0 .005.011.005.012.029 0 0-.011.001-.01.008l.001.029c.001.024-.003.025-.02.051-.008.007.001.021.002.033 0 0 0 .008-.008.018l-.011.013s.011 0 .001.016l.001.027c-.02.001-.042.019-.042.019l.001.016c-.009.01-.022.011-.022.018.023-.002.024.019.016.033.009.009.01.021.001.034-.013.007-.013.017-.013.017l-.024.001c-.004.011.012.035.003.054 0 0-.005 0-.013.01-.002.004 0 .014-.001.019-.028.017-.058-.033-.099-.023l.002.044-.014.023s.016.012.016.02c-.014.018-.022.032-.013.039.015-.001 0-.008.014-.02 0 0 .013.011.028.01.015-.001 0 0 .001.018-.014.017.041-.002.031.025.001.012-.006.026-.014.013-.016-.012-.001-.013-.016-.021-.028-.011-.042.002-.051.002-.019.001-.033.002-.033.012.002.026.002.031-.008.026-.02.001-.034-.046-.064-.023l.002.037c.014.025.021.027.033.043 0 .006-.01.016.001.028.012-.001.008-.016.011-.025.021.011-.009.055-.009.067.01.022.014.022.01.033 0 .002-.008.001-.008.009-.01.003.028.051.003.046-.031-.011-.038-.042-.04.003-.007.018.001.021.012.037 0 0 .019-.001.031.015 0 .015-.009.044-.028.057-.017.015-.052.017-.052.019-.009.01.006.015.007.039 0 .007-.005.007-.014.008-.015 0-.015 0-.014.025 0 .003.001.016-.018.021-.015.024-.015.02.001.023.019-.001.034-.002.044.004l-.008.031c0 .005-.01-.009-.015.001 0 0 0 .005-.019.006.001.009-.003.01-.015.018v.01c-.023.005-.014.025-.028.025-.005.014.001.025-.003.041l.001.029c-.009.009-.02.001-.026.01-.016.012-.01.052-.009.071.001.012-.003.023.002.032.009.007.013.007.03.017.011.015-.009.037-.017.054l-.041.002c-.009.01-.009.018-.008.031-.015.023-.032.038-.024.066.01-.001.012.02.012.029-.01 0-.018-.019-.035.001-.008.005-.006.038-.005.064.001.021-.037.036.002.042.009-.001.026-.002.027.017.001.018.001.022-.016.022-.007.005-.008.017-.025.026-.006.016.002.032-.005.033 0 .01-.011.017.001.032l.002.029c.001.017.001.025-.01.038-.002.01-.026.012-.025.021-.002.011.026.009.026.009.013.015.014.035 0 .035-.023.014-.024.002-.035-.007l-.017-.009v-.016c-.029.001-.028.016-.027.037 0 .005-.007.034-.007.041.009.009.009.009.038.008 0 0 .003-.01.016-.01.011.009 0 .009.001.018-.016.007-.016.007-.016.016-.018.014-.009.023-.018.024-.007.036-.034.001-.016.036l.001.024c.001.011.01.018.01.018 0 .004-.008.01-.008.01.001.017.009.016.01.026.01.016.01.02.001.037-.007.021-.026.022-.029.044-.017.016-.044.048-.015.058.001.016-.027.017-.027.017-.016.004-.004 0-.016.009 0 0 .016-.001.013.009-.012.016-.019.016-.027.037 0 0 .001.017.011.024 0 .009.02.005.001.021 0 .003-.01.003-.014.003l.001.018c.005.016.015.021.002.034-.026.007-.027-.011-.027.007l.003.044c-.01.004-.009.022-.013.034-.004.002-.022.003-.021.023-.01.014-.023.05-.007.067.028.002.063-.021.065.021.011.023-.03.019-.052.026-.025.008-.045.034-.057.056-.018.041-.039.066-.037.114-.012.034-.017.042-.027.07-.004.032.014.041.004.068.001.018-.025.019-.037.043-.003.015-.002.038-.008.06-.013.042-.058.053-.083.088-.021.037.01.028.012.047.018.01.001.034-.007.049-.041.042-.066.057-.064.098-.003.024.003.059-.001.077-.01.021-.039.023-.037.055-.006.008-.005.035-.004.064.002.037-.018.012-.034.044.018.019-.018.012-.017.02-.006.019.002.043.003.054.011.033.012.056-.009.075-.044.015-.044.015-.052.061-.016.046-.044.075-.012.121.007.02.03.019.021.044-.017.026-.054-.022-.1.005-.002.014-.001.036-.011.051-.009.017-.027.02-.034.036-.03.026-.047.053-.074.091l-.013.009a.517.517 0 00-.006.061c0 .388-.004.972-.012 1.754-.007.783-.011 1.368-.011 1.755 0 .536-.111 1.445-.334 2.726-.104.641-.2 1.065-.29 1.274-.178.417-.416.737-.713.961a.5.5 0 01-.077.056.455.455 0 00-.079.055c-.089.15-.245.31-.467.481a5.043 5.043 0 00-.446.369c-.119.119-.327.223-.624.313a3.356 3.356 0 01-.802.111c-.164 0-.371-.037-.624-.111a.174.174 0 01-.067-.023.17.17 0 00-.066-.022c-.223-.045-.483-.179-.78-.402-.208-.105-.513-.373-.914-.805-1.099-1.221-1.737-2.637-1.916-4.246a5.837 5.837 0 00-.2-.961c-.075-.223-.149-.67-.223-1.341a9.673 9.673 0 01-.067-1.162c0-.953.141-2.063.424-3.329.074-.253.125-.417.155-.492.892-1.862 1.441-2.972 1.649-3.33l.936-1.229c.059-.059.122-.112.189-.156.067-.045.156-.086.268-.123l.234-.078a.237.237 0 01.178-.067h.022c.015-.015.045-.023.089-.023h.045c.044 0 .074-.014.089-.044.297-.194.609-.291.936-.291.386 0 .787.142 1.203.425a3.384 3.384 0 011.426 1.832c.229.536.386 1.059.52 1.576l.031-.09c.009-.054.001-.104.004-.157.007-.043.073-.104.026-.133.03-.052.028-.089.051-.131.039-.06.038-.076.064-.152.004-.079.044-.176.067-.261.023-.103.053-.197.078-.298.017-.052.045-.115.042-.171a.547.547 0 01.003-.134c.017-.055.039-.106.058-.157.021-.084.019-.124.057-.194a.29.29 0 00.052-.148c.008-.055.019-.111.021-.174.012-.065-.004-.087.035-.135.03-.049.049-.097.068-.142.042-.153.059-.303.109-.454-.001-.039.023-.073.035-.112a.395.395 0 01.037-.13c.002-.019.001-.043.005-.061.021-.021.022-.034.037-.064.004-.097.044-.19.054-.287.019-.005-.001-.015.018-.028-.001-.006.014-.014.02-.014.017-.02-.007-.019-.008-.03-.001-.026.005-.041.022-.048a.162.162 0 01.021-.089c.007-.017.006-.03.015-.049-.001-.013.015-.033.015-.043.018-.043.016-.091.03-.138.003-.019.015-.029.031-.057.008-.018.007-.046.011-.072.025-.084.056-.17.076-.262a.794.794 0 01.085-.217c.041-.056.065-.125.12-.172.03-.036.063-.07.09-.107.033-.045.083-.069.133-.105.022-.019.046-.034.059-.052a.193.193 0 01.09-.032c.012-.013.036-.014.042-.015.019-.018.019-.02.024-.027.015-.024.031-.025.041-.025a.226.226 0 00.098-.026c.018-.005.062-.007.082-.009.038-.001.07-.013.098-.005.02.004.039-.002.045-.002.02-.01.02-.001.038.002.026.01.074-.003.1.006.039.002.078.006.11.005.016-.001.042-.003.046.008.045.016.08.014.105.033.015.011.032.011.044.013.039.022.085.032.123.049.015.017.023.034.048.048.02.015.031.035.049.048.023.014.032.028.065.041.013.015.023.037.044.038.011.018.026.037.034.053.014.009.018.027.027.035.003.006.018.005.023.02.021.032.03.053.047.084.008.015.009.035.02.034.001.02.017.02.018.033.011.018.002.032.013.053.022.019.03.026.048.05.017.06.04.105.061.176.001.034.021.055.031.082l.004.094c.025.064.043.138.058.199.006.021.015.037.015.046l.003.043a.254.254 0 00.017.1c.034.006.029.033.029.044.002.026.009.054.01.069.002.029.026.057.028.092.005.031.004.071.008.097l.003.051c.018.016.001.027.001.032.02.039.034.06.036.086l.006.117c0 .012.014.016.02.024.001.011.002.021.014.031.006.027.002.045.008.06.001.017.013.033.014.052.001.016-.009.038.002.048.002.039.024.076.025.106.007.03.016.059.032.083.001.028-.013.029-.012.038l.023.016s.001.018.007.018c.004.031.003.058.005.1.001.015.015.02.019.031.016.012.001.023.002.039.003.049.004.074.021.1.001.026.006.042.006.055l.003.053c.002.039.016.071.018.097.017.036.019.062.033.085.01.023.016.063.017.089-.001.044.005.098.044.13.001.018.001.018-.015.032-.009.017.018.026.019.038l.002.044c.002.03.002.035.013.05l.002.049c.002.03.003.045.025.07.016.029.044.065.045.086 0 .013.001.02-.01.037-.014.004-.013.02-.012.038.016.035.017.072.03.095.001.015.007.015.025.026.024.015.025.023.032.036.007.009.019.017.008.029-.005.032-.013.005-.036.016-.017.012.01.068.028.077.007.006.025-.001.026.019.01.012.001.032-.011.033-.005.014-.019.001-.029.024-.005.018.013.032.026.031l-.006.009c.025 0 .037-.01.054-.018.019-.009.029-.009.03.015-.005.017-.029.002-.028.018-.02.022.003.072.005.093.001.022.001.025.025.039.006.003.006-.001.007.021.002.04.002.043-.026.071a.058.058 0 00.013.077c.016.029.039.02.077.026.007.004.029.015.019.037a.387.387 0 01-.027.025c.001.013.04.011.025.03-.005.002-.036.002-.036.026.002.027.027.026.04.048l.002.052c.001.011.018.023.019.039l.002.047c.001.019.027.019.027.027.001.021.001.021-.025.023-.038.016-.051.024-.036.07.001.013.002.031.014.042.007.008.018.008.013.023-.011.007-.023.001-.01.037.027-.014.001.019.001.025l.008.016c.006.008.006.015.007.03a.1.1 0 00.007.04.075.075 0 01.013.038c.001.015.015.014.027.013l.003.069c-.025.017.003.059.004.081.005.008.02.005.01.033-.003.009-.007.01-.007.027.002.032.002.032.021.04.025-.002.037-.002.038.016.024.002-.011.02-.011.02-.024.01-.035.017-.033.041.001.024.038.059.04.084.001.033.015.063.017.1.002.038.004.089.04.121.019.026.039.025.021.061.001.018-.017.009-.011.048.017.078.041.163.052.26.021-.001.034-.002.046.009a.07.07 0 01.02.054c-.015.035-.039.058-.023.101.001.024.013.038.032.059.001.035-.015.059.004.088l.004.068c.002.044.002.039.041.049a.107.107 0 01.077.024c.005.034-.014.043-.025.063-.017.025-.017.033-.015.072l.002.038c.02.015.019.013.047.014.03.035 0 0 .003.052.001.015.028.002.041.023-.011.013-.01.028-.01.033a.274.274 0 00.06.147c.014.006.027.031.033.046.017.023.018.055.031.071.001.029.019.03.021.062.004.03.003.061.005.085.004.033.032.063.025.096.002.036-.017.061-.014.083.01.052.036.089.056.109.025.034.071.069.083.097a.191.191 0 01-.015.05c-.022.013-.043.003-.06.013-.022.015.002.023.003.041.018.011.019.042.021.068.006.02.007.034.007.049.017.024.02.037.003.055.033.021.022.077.037.105.007.023.024.055.027.064.006.024.031.037.032.059.002.009.001.024.014.043.006.016.02.027.023.053.016.024.004.083.021.119.002.044-.01.092-.008.143.003.045.026.082.033.134.005.019.002.035.007.06.01.017.017.026.04.049.006.013.002.037.014.044.004.028.021.039.022.055-.03.013.01.033.023.041l.003.062c.019.01.036.016.042.043.023.021.014.049.025.063.002.034.021.056.032.088a.158.158 0 01.025.093c-.018.031-.018.031-.027.054-.01.014.001.022-.016.033l-.002.005c-.023.023-.017.05-.021.07a.147.147 0 01-.013.057c0 .015.002.039-.016.049-.011.037-.029.014.002.037.019.017.03.018.032.053-.002.028-.028.036-.027.057-.02.016-.015.042-.009.065l.005.084c0 .016.013.019.014.041.001.016-.011.034-.01.047.013.016.049.036.047-.003.024-.001.033-.014.054-.015 0 0-.001-.018.019-.018.007-.001.021.016.021.016.001.012-.066.039-.065.055-.02.034.001.033.002.048v.039c-.022.043.007.085.033.055-.001-.015-.011-.015.019-.016l.021-.001c.001.033-.039.035-.039.035-.01.005 0 .011.001.031.015.035.003.045.032.065.025.004.037.004.057.027.018.019.034.103.052.136.004.053-.044.013.008.159.022.07-.013.062-.02.137-.017.026.007.065.004.09 0 .005-.023.042-.022.056.003.053.03.093.037.149.01.06.029.079.049.14.011.042.006.109.008.151l.008.163c.001.025.021.047.022.078-.008.025-.016.034-.032.057.071.026.133-.007.138.081.001.034-.024.052-.022.086.002.031.028.03.03.07.027.063.012.131.009.182-.014.045-.024.032-.013.072.018.02.043.044.044.058.067-.017.053-.017.09.03.001.03-.005.092.039.067.025-.007.013-.064.037-.084-.002-.024-.004-.061.015-.082.011-.001.012-.006.02-.007.008-.093.03-.186.033-.284-.001-.016-.01-.042-.004-.072-.001-.016.026-.031.025-.051a.59.59 0 01.004-.144c.006-.069.002-.142.014-.224 0-.14.016-.287.033-.413.015-.307.061-.601.075-.893.004-.072 0-.162.026-.245.052-.202.06-.448.081-.663.012-.11.017-.231.025-.359-.002-.05.029-.106.031-.167-.002-.16.06-.316.058-.472-.004-.099.02-.208.034-.308.032-.234.071-.462.086-.693a1.572 1.572 0 01.041-.353c0-.067-.003-.139.012-.215.027-.102.037-.177.056-.285-.001-.118.034-.226.048-.345.019-.082.031-.127.027-.21a.447.447 0 01.036-.218c-.036-.055.015-.159.024-.223.017-.069.03-.157.042-.227.008-.087.028-.166.036-.251.024-.148.035-.315.067-.466.014-.079.015-.162.035-.242.026-.171.063-.316.099-.472.014-.1.045-.201.048-.312.017-.043.003-.078.019-.134.033-.045.009-.08.02-.136.015-.03.025-.041.038-.073.003-.023.001-.058.007-.086.011-.049.022-.118.034-.173.024-.076.055-.164.064-.251.018-.07.008-.144.017-.227.021-.157.075-.317.103-.491.038-.204.111-.405.148-.623.014-.101.043-.195.072-.293.014-.049.011-.101.027-.157-.002-.054.047-.088.057-.129-.001-.022-.016-.071-.017-.103.008-.069.029-.146.035-.214.033-.215.059-.414.116-.615.018-.112.068-.213.085-.311.025-.107.041-.202.073-.316.043-.186.092-.394.128-.595.017-.06.035-.112.056-.164a.466.466 0 00.008-.142.37.37 0 01.036-.153c.009-.041.075-.056.062-.12-.017-.084-.02-.152-.024-.238-.005-.09.06-.155.087-.238.038-.082.027-.148.052-.226.009-.06.017-.171.064-.214-.044-.049.009-.129.021-.188.009-.077.021-.153.033-.232.016-.07.066-.135.075-.207.019-.11.1-.218.121-.32.031-.06.029-.105.049-.171.032-.101.075-.189.084-.309-.005-.083.023-.166.039-.254.005-.047.022-.064.049-.126.012-.015.045-.05.06-.081.001-.03 0-.054.02-.095.011-.038.029-.065.032-.099.101-.377.201-.761.332-1.133.055-.147.092-.298.129-.457.029-.13.085-.24.128-.358.035-.108.065-.221.094-.329.019-.089.043-.183.079-.266.04-.074.048-.149.063-.23a.697.697 0 01.089-.207c.026-.175.096-.341.137-.493a3.22 3.22 0 01.129-.406c.029-.109.056-.233.113-.345.016-.067.027-.134.036-.187.011-.052.046-.109.059-.15.053-.146.095-.308.136-.461.038-.074.053-.153.079-.231.024-.071.05-.16.075-.247.038-.159.103-.287.147-.448.033-.079.055-.155.089-.246a.932.932 0 00.067-.263c.023-.083.057-.137.092-.216.028-.07.043-.153.076-.234.039-.138.07-.27.132-.393.04-.075.061-.142.103-.208.015-.051.048-.181.114-.197a.274.274 0 01.031-.119c.03-.069.09-.136.12-.198.017-.044.054-.075.076-.106.034-.042.055-.067.071-.105.028-.014.029-.042.045-.058.016-.025.016-.015.033-.044.009 0 .013-.004.029-.004-.001-.03.025-.057.046-.058-.005-.033-.002-.052.018-.066.006-.014.039-.002.041-.007.002-.009.001-.017.011-.027.05-.037.067-.068.103-.096.129-.101.238-.221.382-.293.031-.014.063-.035.095-.048.028-.019.055-.01.1-.028.023-.017.036-.039.079-.05.035-.011.073-.013.109-.015.04-.002.082-.031.105-.033.023-.001.025.026.04.025.011 0 .026-.028.046-.029 0 0 .025.01.037.009.011.016.02-.005.037-.006a.218.218 0 01.097.015l.097-.005a.261.261 0 01.079.015c.031.011.06.008.086.008.029.003.039.022.079.036v.007l.031-.002c.009 0 .014-.001.033.01.02.01.041.009.073.016.029.002.043.017.08.017.022.022.049.033.079.052.022-.002.056.006.076.006.004.019.004.019.014.031.013.006.03.005.03.017.027-.001.04.018.052.029.016.002.017.021.038.024.006 0 .021-.005.042-.002.009.009.001.01.01.022.001.016.009.016.032.027.008.008.014.008.014.008 0 .005.017.004.017.004.001.014.008.025.017.024 0 .007.012.006.012.007.02.018.021.026.031.031l.009.013c.012.002.012.006.013.019.034.006.05.015.058.033.035.043.072.074.096.106.021.018.026.024.041.03 0 .011.001.025.004.035a.652.652 0 00.065.09c.009.006.009.02.015.035.009.012.009.012.029.027l.002.03c.012.025.026.036.028.063.009.006.01.03.021.042.006-.001.024.019.024.023a.101.101 0 00.023.064l.003.039c.001.027.008.027.009.05 0 0 .014.016.015.027.009.018.017.047.024.059.008.035.003.062.015.089 0 .01.012.018.001.031l.002.035c.001.017.013.041.014.059.021.021.022.032.023.053l.007.145c.002.022.012.061.004.073-.002.008-.019.015-.03.024-.002.026.001.016.03.031.003 0 .003 0 .003.004l.002.029c0 .015-.019.03-.019.031a.228.228 0 00-.006.084zM62.486 27.031l-.064-3.183-.127-2.334c-.113-.905-.317-1.669-.613-2.291-.198-.396-.543-.722-1.037-.976a.655.655 0 00-.275-.043.941.941 0 00-.338.064.964.964 0 01-.339.085h-.021c-.014-.014-.028-.021-.042-.021l-.021-.022h-.021c0 .043-.022.064-.064.064 0 .014.003.021.011.021.007 0 .01.008.01.021-.113.227-.5 1.196-1.163 2.907-.169.453-.268 1.012-.296 1.677a29.325 29.325 0 00-.042 1.315c0 .354.021.7.063 1.04 0 .014.003.031.011.053a.21.21 0 01.01.053.315.315 0 01-.084.233l-.022-.021v.042c.056.199.134.637.233 1.316.141.891.366 1.669.677 2.334l.021-.022c.014 0 .035.022.064.064.056.099.169.28.338.541.169.262.296.471.381.626v.021c.564.411 1.05.679 1.459.807a.652.652 0 00.191.021c.183 0 .324-.099.423-.297.366-.637.571-1.436.613-2.398 0-.113.007-.272.021-.477.014-.205.025-.389.032-.552.007-.162.011-.321.011-.477v-.191zm-5.835 5.321l.008.127a.528.528 0 01-.208.417c-.458.382-.954.589-1.489.622-.253.015-.473 0-.659-.046-.687-.142-1.081-.225-1.181-.247a.674.674 0 00-.213-.029l-.021.001a.16.16 0 00-.053.014.185.185 0 01-.052.014c-.141.008-.519-.054-1.134-.187a5.9 5.9 0 00-.747-.082 7.03 7.03 0 01-.768-.081l-.063.004a.658.658 0 00-.136.03.84.84 0 01-.136.029c-.24.014-.457-.079-.653-.279-.24-.241-.568-.76-.983-1.556a.644.644 0 01-.059-.273l-.01-.169a88.57 88.57 0 01.1-2.897c.033-.626.04-1.561.022-2.807l.01-.883c.005-.39.002-.677-.009-.861a9.386 9.386 0 01-.003-.754 9.894 9.894 0 00-.003-.754c-.017-.283.058-1.137.227-2.565.051-.315.121-.794.21-1.437.088-.643.157-1.129.209-1.458.054-.272.183-.471.387-.597a3.54 3.54 0 00.325-.243c.161-.13.291-.212.388-.247.123-.064.233-.106.331-.126l.084-.005c.169-.011.274.082.314.278.113.475.179.854.196 1.136-.009.1-.023.324-.045.672-.021.349-.04.623-.056.822a32.228 32.228 0 00-.182 2.264c-.039.995-.049 1.64-.031 1.937.016.268.035.465.057.591a41.9 41.9 0 01.197 1.519c.045.521.1 1.312.164 2.371l.004.063c.012.198.016.499.012.903s0 .705.012.902l.013.212c.002.029-.003.082-.012.16a1.203 1.203 0 00-.01.182l.005.084c.014.226.135.368.365.425.186.045.635.117 1.348.215.242.028.554.059.938.092.071.01.177.011.318.002a1.651 1.651 0 00.378-.054.286.286 0 01.063-.015.582.582 0 01.456.185c.556.562.865.883.927.964.077.109.206.257.387.444.286.295.44.618.461.971zm-17.998.79a6.995 6.995 0 01-.889.106c-.183.014-.49.056-.92.127-.431.07-.765.113-1.005.127-.056 0-.134.003-.233.011a3.29 3.29 0 01-.211.01c-.452 0-.839-.071-1.163-.212l-.022-.021a2.095 2.095 0 00-.317-.286 1.976 1.976 0 01-.381-.382.74.74 0 01-.127-.435c0-.014-.007-.022-.021-.022-.014 0-.021-.006-.021-.021a1.259 1.259 0 01-.211-.573 8.465 8.465 0 01-.032-.275l-.032-.308a3.174 3.174 0 01-.021-.287 9.648 9.648 0 01-.042-.763c0-.128.003-.319.01-.573.007-.255.011-.446.011-.573v-.17-.297c0-.721.021-1.443.063-2.164.028-.594.099-1.45.212-2.567.013-.128.031-.326.053-.594.021-.269.038-.467.052-.595.014-.042.029-.102.043-.18.014-.077.021-.138.021-.18a2.36 2.36 0 00.021-.361c0-.071-.014-.191-.042-.361a.748.748 0 01-.021-.212v-.021-.064c0-.424-.022-.742-.064-.955l-.021-.021v-.021c0-.043.014-.106.042-.191a.715.715 0 00.043-.17c.042-.268.211-.459.507-.573a.974.974 0 01.297-.084c.084 0 .161.028.232.084.042.043.106.064.191.064.112.014.306.057.581.127.275.071.483.114.624.128.056 0 .166.018.328.053s.293.053.392.053H36.812c.254.014.522.092.804.233.042.015.127.085.254.212.465.283.804.566 1.015.849a.599.599 0 01.148.361v.042c0 .142-.025.241-.074.297a.96.96 0 01-.285.191 1.173 1.173 0 01-.529.106c-.198 0-.346-.007-.444-.021a15.842 15.842 0 01-.804-.106 1.814 1.814 0 01-.317-.085 44.316 44.316 0 00-1.312-.424.472.472 0 00-.148-.021c-.099 0-.148.084-.148.254v1.549c0 .028.003.064.01.106a.71.71 0 01.011.085c0 .198-.011.499-.032.902s-.031.711-.031.923c0 .141.021.275.063.403.042.014.159.05.349.106.19.057.349.092.476.106a.369.369 0 00.074-.011.34.34 0 01.286.054c.013 0 .063.021.148.063.127.099.384.198.772.297.387.099.638.255.751.467a.56.56 0 01.021.191c0 .184-.05.396-.148.637-.099.24-.198.396-.296.466a.631.631 0 01-.339.127c-.071 0-.162-.013-.275-.042a23.097 23.097 0 00-.582-.18 18.612 18.612 0 01-.581-.181 2.444 2.444 0 01-.402-.169.673.673 0 00-.169-.043c-.071 0-.106.071-.106.212v.213c0 .297.007.516.021.657.042.453.063.899.063 1.337 0 .071.004.184.011.339.007.156.011.276.011.361v.043c0 .056.028.127.084.212h.021c.014.014.028.021.043.021h.19c.056 0 .148.004.275.011.127.007.219.01.275.01.098 0 .176-.007.233-.021h.994c.423 0 .669-.021.74-.064.014-.014.035-.021.064-.021.028 0 .07.015.127.043a.45.45 0 01.105.084c.127.1.247.297.36.595.042.07.077.155.106.254a.96.96 0 00.148.297c.155.227.254.411.296.552a.298.298 0 01.021.127c0 .029-.056.177-.169.446-.042.085-.155.141-.338.17zm-6.854-.382c-.127 0-.304.056-.529.169a1.364 1.364 0 01-.338.085c-.241 0-.438-.12-.593-.361a36.781 36.781 0 01-.878-1.453 73.223 73.223 0 00-.835-1.411 1.799 1.799 0 01-.233-.573c-.071-.268-.261-.65-.571-1.146-.508-.82-.846-1.393-1.015-1.718a.314.314 0 01-.053-.096 2.26 2.26 0 00-.053-.116c-.071-.099-.127-.149-.169-.149h-.022c-.098.014-.148.092-.148.234a203.053 203.053 0 00-.127 1.676c-.014.382-.06.919-.137 1.612a62.444 62.444 0 00-.138 1.295c0 .071-.014.23-.042.477a5.454 5.454 0 00-.042.562c0 .099-.014.244-.042.435a3.135 3.135 0 00-.043.435c0 .085-.014.142-.042.17-.254.424-.635.636-1.142.636-.156 0-.268-.007-.339-.021a.696.696 0 00-.211-.042 1.09 1.09 0 01-.635-.276.798.798 0 01-.254-.615v-.043l.021-.042c.099-1.061.205-1.761.318-2.101a.677.677 0 00.042-.191v-.042a1.778 1.778 0 01-.021-.318l.127-.892c.056-.41.161-1.074.317-1.994.155-.919.268-1.627.338-2.122a19.34 19.34 0 00.233-2.907c0-.113.003-.282.011-.509.007-.226.01-.396.01-.509v-.382c0-.325-.021-.573-.063-.743a.748.748 0 01-.021-.212c0-.155.013-.276.042-.36v-.128a1.607 1.607 0 01-.021-.297c0-.07.003-.148.01-.233.007-.085.018-.177.032-.276.014-.099.021-.177.021-.233a4.396 4.396 0 01.339-1.528c.225-.608.592-.997 1.1-1.167a.945.945 0 01.296-.085h.063c.24 0 .381.127.423.382.085.424.127.75.127.976 0 .255.014.623.043 1.103.028.481.042.842.042 1.082v.319c-.029.792-.05 1.393-.063 1.803 0 .014-.004.05-.011.106a1.17 1.17 0 00-.011.128.21.21 0 00.106.191l.021.021h.043c.028 0 .056-.014.084-.043a.504.504 0 00.085-.127.503.503 0 01.063-.106c.324-.41.818-1.11 1.481-2.101.733-1.06 1.29-1.775 1.671-2.143.254-.226.423-.36.508-.403a.908.908 0 01.402-.106.72.72 0 01.529.212c.098.099.148.199.148.297a.715.715 0 01-.043.17 4.342 4.342 0 01-.677 1.188 36.098 36.098 0 00-2.559 3.671c-.085.141-.423.658-1.015 1.549a.58.58 0 00-.106.297.4.4 0 00.084.255c.31.481.748 1.315 1.312 2.503.183.382.747 1.302 1.692 2.758.197.297.462.729.793 1.295s.526.891.582.976a.85.85 0 01.127.445c0 .17-.057.368-.169.594-.057.142-.148.213-.275.213zm-10.167.763a.707.707 0 01-.55-.233c-.31-.382-.5-.764-.571-1.146-.042-.212-.109-.53-.201-.955a12.815 12.815 0 01-.179-.954 1.08 1.08 0 01-.022-.255l-.063-.255c-.141-.141-.402-.24-.783-.297a50.19 50.19 0 00-1.65-.212 2.643 2.643 0 01-.486-.148.472.472 0 00-.148-.021c-.127 0-.212.092-.254.275-.085.439-.127.665-.127.679v.064c-.014.113-.113.644-.296 1.591l-.064.255c-.056.24-.197.368-.423.382-.071.014-.198.05-.38.106-.17.042-.262.064-.276.064-.409 0-.698-.135-.867-.404-.014-.014-.021-.035-.021-.063a.348.348 0 00-.011-.085.353.353 0 01-.01-.085 1.35 1.35 0 01-.127-.573c0-.268.091-.516.275-.742.085-.114.155-.269.211-.467.071-.425.205-1.029.402-1.814.198-.785.331-1.348.402-1.687.056-.255.155-.612.296-1.072.141-.459.233-.781.275-.965.226-.962.36-1.613.402-1.952.014-.085.05-.198.106-.34.056-.141.092-.233.106-.275.31-1.217.55-2.122.719-2.716.466-1.655.839-2.751 1.121-3.289a.713.713 0 01.677-.403c.014 0 .043.007.085.021.183.043.275.163.275.361v.042c0 .241-.029.446-.085.616a1.171 1.171 0 00-.042.254.66.66 0 00.063.297c.24.637.409 1.457.508 2.461.056.552.169 1.436.338 2.653.057.353.24 1.294.551 2.822.281 1.358.429 2.086.444 2.185.028.156.095.375.201.658.105.283.165.438.179.466.043.128.064.241.064.34 0 .042-.014.12-.042.233a.583.583 0 00-.043.255c0 .085.007.148.021.191.339 1.712.536 2.666.593 2.864.013.043.028.103.042.181a5.71 5.71 0 00.085.392.39.39 0 01.021.149c0 .099-.021.17-.064.212a.84.84 0 01-.677.339zm-2.221-7.065c-.183-.651-.374-1.627-.571-2.928a36.366 36.366 0 01-.275-2.037c0-.056-.028-.106-.084-.148-.029.028-.064.141-.106.339-.071.453-.194 1.1-.37 1.941a34.039 34.039 0 00-.349 1.836 7.315 7.315 0 01-.085.392 6.59 6.59 0 00-.085.393.556.556 0 00-.021.17c0 .169.07.304.212.403.028.028.049.042.063.042h.043c.013 0 .049.011.105.032a.464.464 0 00.106.032h.719c.028 0 .049.007.064.021l.381-.064c.169-.014.267-.056.296-.127 0-.028-.015-.127-.043-.297zm-6.664 7.612a.872.872 0 01-.753.409h-.148a2.636 2.636 0 01-.838-.284c-.329-.178-.416-.417-.43-.585a4.657 4.657 0 00-.071-.487 4.237 4.237 0 01-.078-.702v-.212c.04-.288.061-.435.063-.476l.013-.07c0-.001.008-.03.008-.112a1.445 1.445 0 01-.063-.467c0-.078.014-.214.046-.402l.023-.072a2.296 2.296 0 00-.04-.186 6.24 6.24 0 01-.174-.861 6.058 6.058 0 00-.162-.802 2.707 2.707 0 01-.052-.382 1.547 1.547 0 00-.036-.246c-.091-.124-.144-.32-.175-.631a8.395 8.395 0 00-.134-.933 9.27 9.27 0 01-.142-.919 32.302 32.302 0 01-.052-.778c-.022-.344-.039-.6-.053-.768a13.795 13.795 0 01-.033-.898 7.408 7.408 0 00-.048-.803 8.505 8.505 0 01-.351.738c-.468.912-.774 1.63-.91 2.133-.015.08-.063.2-.146.359l-.125.239c-.519 1.36-.857 2.383-.995 3.017-.108.463-.163.823-.163 1.071 0 .239.03.446.091.613.04.123.057.206.057.278 0 .203-.092.388-.275.551-.096.073-.107.111-.108.121-.116.401-.343.537-.519.582l-.256.31c-.365.367-.693.319-.995-.1-.049-.042-.088-.154-.13-.428a4.347 4.347 0 01-.066-.782c0-.039.004-.09.014-.155a.674.674 0 00.007-.078v-.276c0-.433-.063-.966-.185-1.584a89.946 89.946 0 00-.464-2.155c-.137-.608-.268-1.057-.388-1.337a4.004 4.004 0 01-.226-.757 9.393 9.393 0 00-.141-.58c-.034-.128-.11-.421-.237-.895a34.018 34.018 0 00-.127-.459.784.784 0 00-.008.087v.169c0 .265.028.403.05.47.038.115.056.259.056.442v.447c.013.198.021.523.021.954 0 .228-.003.574-.01 1.044a64.05 64.05 0 00-.011 1.056v2.462c0 .23-.014.574-.043 1.034.001.031-.003.103-.011.205a2.261 2.261 0 00-.009.182c0 .104.013.248.039.431l.003.142c0 .291-.082.561-.245.801a1.264 1.264 0 01-.648.502.886.886 0 01-.271.034H1.46c-.255 0-.518-.048-.782-.142-.075-.001-.311-.077-.43-.408C.085 32.34 0 31.965 0 31.635v-.148c0-.215.011-.533.032-.957.021-.411.032-.722.032-.931v-.445c0-.246.007-.501.021-.768a85.793 85.793 0 01.106-1.649l.063-.965c0-.227.021-.552.065-.984.041-.407.062-.702.062-.876.013-.488.038-1.179.074-2.078.035-.9.06-1.492.075-1.775l-.001-.114c0-.213-.038-.277-.042-.282a.973.973 0 01-.127-.503c0-.15-.015-.376-.042-.678l-.001-.235c0-.435.069-.862.204-1.269.023-.05.03-.075.039-.106.014-.048.028-.089.042-.123.092-.456.381-.827.86-1.1a.776.776 0 01.379-.118c.121 0 .3.041.468.237.17.195.338.329.499.399.267.144.437.375.526.696.098.309.177.583.234.812a586.014 586.014 0 001.014 3.73c.112.363.268.925.466 1.679.197.746.351 1.31.464 1.689.148.544.273 1.053.37 1.519.115-.27.2-.501.263-.712.105-.318.276-.705.525-1.19.291-.528.59-1.262.895-2.191.057-.189.172-.47.349-.854.287-.659.56-1.502.809-2.502.166-.723.264-1.171.292-1.338.041-.301.089-.73.146-1.278.074-.58.202-1.068.382-1.459.019-.064.122-.276.442-.276l.135.027c.195.048.357.124.49.228l.185.052c.095.027.169.048.224.06a.762.762 0 01.591.625c.028.156.087.419.177.794.096.399.15.705.165.935.029.194.043.349.043.44a90.34 90.34 0 00.085 2.426c.012.119.024.313.032.569.006.244.017.468.031.67.013.196.033.375.06.537.015.073.025.21.025.403v.297c0 .148.01.202.014.215.034.232.06.568.08 1.025.021.439.052.778.092 1.007.058.349.121.949.194 1.837.069.857.153 1.521.249 1.974.033.197.048.352.048.477v.275c0 .247.02.355.032.397.056.181.106.407.148.669.102.202.169.433.199.686.055.378.127.954.211 1.722l.002.176c0 .401-.184.694-.532.848a.428.428 0 00-.218.207z" fill-rule="evenodd" fill="#cc092f"/></svg>